<svg xmlns:dc="http://purl.org/dc/elements/1.1/" xmlns:cc="http://creativecommons.org/ns#" xmlns:rdf="http://www.w3.org/1999/02/22-rdf-syntax-ns#" xmlns:svg="http://www.w3.org/2000/svg" xmlns="http://www.w3.org/2000/svg" viewBox="0 0 300 136.93018" version="1.1" id="svg59397" height="213.69760566432808" width="467.95096130874765">
  <defs id="defs59399"/>
  <metadata id="metadata59402">
    <rdf:RDF>
      <cc:Work rdf:about="">
        <dc:format>image/svg+xml</dc:format>
        <dc:type rdf:resource="http://purl.org/dc/dcmitype/StillImage"/>
        <dc:title/>
      </cc:Work>
    </rdf:RDF>
  </metadata>
  <g transform="translate(1493.27,-78.940065)" id="layer1">
    <g id="g59368" transform="matrix(3.8476979,0,0,3.8476979,-1209.2762,-2331.0592)">
      <path id="path14286" style="fill:#296abc;fill-opacity:1;fill-rule:nonzero;stroke:none" d="m -34.987565,649.06579 -0.0225,-0.0113 c -0.18125,0.23125 -0.625,0.1975 -0.7625,0.47375 0.1825,0.009 0.22875,-0.12125 0.3975,-0.13 0.1175,-0.1225 0.33375,-0.14625 0.3875,-0.3325 m -0.80875,-4.45125 0,0.29 0,-0.29 m 0.93875,-3.43875 c 0.11125,0.12375 0.21,0.26375 0.34125,0.36625 l 0.045,-0.0325 c -0.0875,-0.16875 -0.23125,-0.2775 -0.38625,-0.3775 l 0,0.0438 m 9.4075,-1.0575 -0.31125,0 -0.13125,-0.0425 c -0.135,-0.015 -0.27,0.0525 -0.40875,0.0312 l -0.1175,-0.0412 c -0.14125,-0.015 -0.34125,0.055 -0.53875,0.0638 -0.29875,0.0125 -0.65,-0.015 -0.905,0.01 l -0.12875,0.0225 -0.165,-0.0863 c -0.175,-0.04 -0.37375,0.0425 -0.54875,0.01 -0.075,0.12 -0.24625,0.0775 -0.44,0.0875 -0.28875,0.0113 -0.59625,0.03 -0.82125,0.0213 l 0.1525,-0.0875 c -0.465,-0.007 -0.98125,-0.0213 -1.465,0 -0.665,0.03 -1.57,0.17875 -2.1375,-0.0412 l -0.11875,0.0963 -0.2575,-0.0438 -0.24875,-0.0638 -0.10625,0.0525 -0.25625,-0.0312 c 0.0875,0.1225 0.2125,0.2025 0.32,0.3125 l 0.29125,0.35625 0.20375,0.19375 0.12875,0.20625 0.2925,0.31125 c 0.1275,0.16375 0.25125,0.335 0.3425,0.5175 0.115,-0.0488 0.09,-0.1825 0.175,-0.25875 l 0.22375,-0.085 0.22875,-0.0975 0.155,0.0212 0.1375,-0.0662 c 0.15125,-0.0437 0.36625,-0.0537 0.57,-0.075 0.22125,-0.0225 0.44375,-0.0525 0.6175,-0.0412 0.14375,0.007 0.25375,0.0687 0.355,0.0625 l 0.175,-0.0738 0.17875,0.0862 c 0.1025,-0.0525 0.0325,-0.275 0.195,-0.27 l -0.02125,0.21625 c 0.1475,0.0775 0.3825,0.008 0.55875,0.0538 l 0.12125,0.0412 c 0.16875,0 0.2475,-0.1875 0.395,-0.17125 -0.16875,0.16125 -0.31125,0.4075 -0.4725,0.59125 -0.1,0.1175 -0.24,0.1875 -0.22875,0.39875 -0.2225,0.11 -0.25875,0.3575 -0.40625,0.55125 -0.26375,0.34875 -0.39625,0.7775 -0.6575,1.12125 l -0.1175,0.0425 c -0.0725,0.20875 -0.18875,0.3875 -0.28125,0.5825 -0.05375,0.11125 -0.12125,0.18625 -0.085,0.3225 -0.1425,0.17625 -0.31875,0.325 -0.44125,0.5175 l 0.07375,0.14 c -0.12125,0.165 -0.25375,0.32625 -0.36625,0.54125 -0.1225,0.23 -0.22125,0.5475 -0.455,0.635 l 0.0975,0.20375 -0.19375,0.36625 c -0.14625,0.27375 -0.2825,0.4675 -0.46375,0.67875 l -0.26125,0.31375 c -0.1175,0.12375 -0.3325,0.21875 -0.40875,0.35375 l 0.15125,0.13125 -0.26875,0.0113 -0.26875,0.2475 c -0.2725,0.27375 -0.49375,0.56875 -0.8525,0.71 l -0.075,0.15125 -0.11625,-0.01 c -0.22375,0.1475 -0.41,0.325 -0.65625,0.44125 l -0.24875,0.1275 0.215,0.0438 0.2375,0.0325 c 0.2525,-0.008 0.45625,-0.0987 0.675,-0.14 l 0.2725,-0.0525 c 0.2325,-0.015 0.55375,0.0237 0.74125,-0.045 l 0.13875,-0.0862 0.2175,0 c 0.2025,-0.009 0.4425,0.002 0.64625,-0.01 0.14625,-0.009 0.33625,-0.0975 0.475,-0.075 l 0.1425,0.065 0.19375,-0.0113 c 0.1075,-0.005 0.23625,-0.003 0.3575,-0.009 l 0.3225,-0.045 0.245,0.12875 c 0.27375,0.055 0.5675,-0.0425 0.84125,-0.0638 0.34625,-0.0275 0.65625,0.12 0.91875,0.0312 l 0.1475,-0.0638 0.18375,0.1075 c 0.32375,-0.0462 0.69,0.07 0.9375,-0.0437 l 0.1725,0.0975 c 0.27625,0.0975 0.6825,-0.0588 0.96,-0.0425 0.14125,0.008 0.18625,0.0888 0.28125,0.1175 l 0.1725,-0.1075 c 0.0088,-0.21125 0.05875,-0.33 0.1075,-0.51625 0.03375,-0.135 0.0275,-0.2925 0.06375,-0.3775 l 0.21625,-0.15 c -0.13625,-0.295 0.0925,-0.535 0.11875,-0.77625 0.01125,-0.12125 -0.02625,-0.31 -0.08625,-0.3675 l -0.15125,0.2925 c -0.065,0.0925 -0.2775,0.20375 -0.44125,0.225 l -0.1625,0 -0.2925,0.10875 c -0.29125,0.0275 -0.625,-0.0762 -0.88375,-0.0225 -0.1275,0.0275 -0.2,0.1625 -0.3225,0.14125 l -0.06625,-0.11875 c -0.175,0.0338 -0.3475,-0.0362 -0.5275,-0.0337 -0.18,0.004 -0.3725,0.0575 -0.57125,0.0662 -0.22125,0.009 -0.44,0.004 -0.655,-0.0325 l -0.045,-0.0775 c -0.27375,-0.02 -0.5325,-0.055 -0.76375,-0.11625 0.0625,-0.1425 0.19125,-0.2375 0.3025,-0.34625 0.1075,-0.10875 0.20125,-0.24125 0.315,-0.345 l 0.13625,-0.1075 c 0.10625,-0.13 0.14125,-0.3025 0.2675,-0.42 -0.17125,-0.1275 -0.05,-0.24375 0.045,-0.3775 0.14875,-0.21125 0.3125,-0.46375 0.44,-0.62625 0.36375,0.06 0.3,-0.2975 0.38,-0.505 l 0.1725,-0.27 c 0.165,-0.285 0.34375,-0.615 0.515,-0.83 l 0.01125,-0.13875 0.11125,0 c 0.0125,-0.1225 0.1975,-0.26625 0.20125,-0.3675 l -0.0525,-0.1625 c 0.27125,-0.0288 0.36375,-0.28375 0.48375,-0.505 0.18,-0.3325 0.37,-0.6125 0.54875,-0.91625 0.09625,-0.16 0.17125,-0.33625 0.2725,-0.475 l 0.13125,-0.16125 -0.0225,-0.14875 0.10625,-0.15375 0.0325,-0.0963 c 0.07375,-0.12 0.20125,-0.24375 0.30125,-0.3875 l 0.27,-0.42 0,-0.18375 c 0.04125,-0.155 0.33,-0.3 0.31125,-0.4975 m 8.17,8.82875 c -0.19875,0.1075 -0.57,0.235 -0.86125,0.2175 l -0.18375,-0.045 -0.14,0.0638 c -0.10375,0.0337 -0.26,0.0675 -0.3775,0.065 -0.1175,-0.004 -0.1875,-0.0475 -0.27,0.0225 l -0.23875,-0.11875 -0.25625,0.0412 c -0.35,0.0213 -0.73875,-0.10125 -1.04375,-0.13875 -0.1225,0.1175 -0.26,0.0338 -0.4425,0.0113 l -0.205,-0.0113 -0.16375,-0.1075 c -0.19375,-0.0362 -0.365,0.11375 -0.57125,0.0538 -0.0225,-0.4325 -0.0675,-0.93 -0.0975,-1.3275 l -0.01125,-0.30125 0.0975,-0.14 -0.0125,-0.30125 c -0.0225,-0.16 -0.04875,-0.32 -0.065,-0.47375 0.08625,-0.05 0.075,-0.19125 0.08875,-0.3125 0.23625,-0.04 0.4825,-0.1 0.7225,-0.0525 l 0.18375,0.075 0.14125,-0.0325 0.27875,0.01 0.28125,-0.2475 0.2275,0.14 0.14,-0.0638 0.13875,0.17125 c 0.4025,-0.0137 0.75375,0.0575 1.045,0.13 l 0.235,0.0625 c -0.02875,-0.20125 -0.1475,-0.3175 -0.215,-0.4825 0.15875,-0.14 0.34875,-0.28375 0.55,-0.39 0.21,-0.11125 0.46125,-0.15875 0.62625,-0.3225 -0.22375,-0.1425 -0.475,-0.21875 -0.69875,-0.345 -0.23125,-0.12625 -0.38875,-0.3225 -0.58375,-0.47375 0.0225,-0.12875 0.14625,-0.2125 0.11875,-0.355 -0.24375,0.0512 -0.4375,0.2175 -0.73125,0.24625 -0.2125,0.0212 -0.4425,-0.0238 -0.6575,0 l -0.2275,0.0762 -0.205,-0.10875 -0.22625,0.0437 c -0.1625,0.0138 -0.3575,-0.0425 -0.4725,-0.0225 l -0.155,0.0875 -0.12875,-0.11875 c -0.1175,-0.0312 -0.3025,0.0412 -0.39875,-0.0425 l -0.04125,-0.31375 -0.13125,-0.105 c 0,-0.12 0.01,-0.245 0.0225,-0.37875 0.01125,-0.13125 -0.01375,-0.28875 0.01875,-0.38875 l 0.09875,-0.13125 0,-0.1825 c 0.0075,-0.21375 0.06,-0.47 0.075,-0.65625 l 0.05375,-0.29125 c 0.16125,-0.0375 0.35,-0.0238 0.5325,-0.0325 l 0.205,-0.01 0.225,0.0962 0.19375,-0.0425 c 0.265,-0.035 0.6225,-0.025 0.8625,-0.0438 l 0.22625,0 c 0.1,-0.0263 0.12125,-0.15 0.23625,-0.1725 l 0.13,0.1625 c 0.49875,-10e-4 1.0375,-0.0937 1.39,0.0962 l 0.2475,0.19375 0.18,0.1625 c 0.05125,-0.18625 0.0062,-0.4 0.02125,-0.59375 l 0.03375,-0.225 -0.0875,-0.1825 c -0.02125,-0.11875 0.0325,-0.23375 0.0425,-0.35625 0.02375,-0.22 0.0087,-0.4425 -0.0325,-0.65875 -0.1725,-0.0588 -0.44875,-0.04 -0.5575,0.0638 -0.15625,-0.13 -0.41875,-0.0325 -0.7425,-0.0425 l -0.26125,-0.0312 -0.52625,0.02 -0.1075,0.0763 c -0.16,-0.12125 -0.485,-0.0438 -0.785,-0.065 -0.25375,-0.0175 -0.46125,-0.13625 -0.63375,-0.12875 -0.11625,0.005 -0.18,0.1525 -0.26,0.1825 -0.10625,0.0387 -0.31625,0.0137 -0.51125,0 -0.1125,-0.009 -0.235,0.0113 -0.3125,0 l -0.195,-0.10625 -0.1825,0.01 c -0.80125,0.0338 -1.7425,0.04 -2.54125,0.085 0.04,0.14 0.14125,0.125 0.20375,0.205 l 0.11875,0.175 0.13,0.1725 c 0.09125,0.1725 0.0875,0.44875 0.0975,0.68875 l 0,0.3225 0.08375,0.1625 -0.04125,0.28125 0.02,0.11625 -0.02,0.25875 c -0.0025,0.16375 0.0325,0.3375 0.02,0.50625 l -0.03,0.27125 c 0.005,0.1 0.06875,0.2125 0.08375,0.33375 0.0325,0.23875 -0.06125,0.4975 -0.01875,0.7 l 0.085,0.15 c 0.0125,0.08 -0.01125,0.24 -0.01125,0.37875 0,0.375 -0.0075,0.71375 -0.03125,1.04625 l -0.18375,0.0538 c 0.0675,0.275 -0.07125,0.62625 0.08625,0.7975 -0.1125,0.11875 0.0025,0.25625 0.0087,0.3975 l -0.01875,0.28 c 0,0.27375 0.09,0.63375 0.065,0.95 -0.02,0.225 -0.0875,0.45125 -0.065,0.62375 l 0.05125,0.1825 -0.11625,0.185 -0.05375,0.31125 c -0.06125,0.12875 -0.1725,0.23875 -0.26875,0.3225 -0.10375,0.0963 -0.245,0.15125 -0.33625,0.27 0.09125,0.0625 0.21125,0.0375 0.32375,0.0425 0.335,0.02 0.70125,0.0688 1.00375,0.10875 0.21125,-0.0663 0.47375,0.0275 0.7525,0.0425 l 0.185,0 0.16,0.10875 c 0.15,0.05 0.37,-0.0425 0.52625,-0.055 l 0.22625,0.0113 c 0.2675,0.0113 0.555,-0.0312 0.81125,-0.0113 0.1475,0.0113 0.29875,0.06 0.44375,0.0762 l 0.2375,0.0225 0.21625,0.0425 0.17125,-0.0538 c 0.16625,-0.002 0.30125,0.16375 0.48375,0.1825 0.1675,0.0175 0.3175,-0.11875 0.50625,-0.13875 0.12375,-0.015 0.255,0.0437 0.345,0.03 l 0.15,-0.0738 0.14,0.0863 c 0.155,0.0375 0.3575,0.0325 0.55,0.0625 0.2925,0.0462 0.5775,0.0875 0.8175,0.0987 0.05625,-0.13625 0.035,-0.29 0.05625,-0.4525 0.0125,-0.11625 0.08375,-0.21875 0.075,-0.3225 l -0.04125,-0.14125 c -0.01,-0.13 0.05125,-0.30125 0.07375,-0.4625 0.02375,-0.1775 0.01625,-0.3625 0.0425,-0.49625 l 0.0425,-0.1825 c -0.11625,-0.004 -0.1875,0.0888 -0.27875,0.14 m -25.39125,1.29125 c -0.28,0.025 -0.315,-0.23875 -0.56,-0.215 -0.32,-0.205 -0.62625,-0.44625 -0.95125,-0.6775 -0.1575,-0.11625 -0.33875,-0.2175 -0.47125,-0.345 -0.14375,-0.135 -0.2525,-0.2975 -0.39875,-0.42 -0.11875,-0.0987 -0.26875,-0.16125 -0.35625,-0.2925 l -0.14125,-0.3025 -0.1175,-0.0762 0.0325,-0.1375 c -0.14,-0.1525 -0.20625,-0.37125 -0.46375,-0.4 -0.02375,-0.14 -0.13625,-0.2225 -0.14,-0.35625 l 0.03375,-0.13875 -0.17375,-0.2475 c -0.18875,-0.275 -0.30875,-0.56375 -0.4525,-0.84125 -0.10375,-0.0525 -0.2525,-0.0612 -0.41125,-0.085 -0.14625,-0.025 -0.31125,-0.1025 -0.4175,-0.0863 l -0.1625,0.0975 -0.1075,-0.1525 -0.30375,-0.13 c 0.18375,-0.015 0.3925,-0.02 0.59375,-0.0425 0.1425,-0.0163 0.435,-0.05 0.5275,-0.11 l 0.16,-0.2775 c 0.15125,0.0638 0.21875,-0.065 0.32625,-0.15125 0.19375,-0.15875 0.40625,-0.35625 0.485,-0.57125 l -0.0225,-0.29125 0.23875,-0.19375 c 0.03375,-0.0738 0.02375,-0.22 0.05375,-0.34375 0.05125,-0.23125 0.08875,-0.44125 0.10625,-0.70125 0.0063,-0.13125 0.04,-0.2675 0.0325,-0.3775 -0.015,-0.23375 -0.205,-0.3775 -0.235,-0.53875 0.155,-0.1975 -0.12125,-0.4275 -0.21625,-0.57125 -0.1025,-0.1525 -0.16875,-0.3 -0.28,-0.43 l -0.32625,-0.28 -0.2575,-0.28125 c -0.09875,-0.0362 -0.2525,-0.03 -0.3775,-0.045 -0.1225,-0.015 -0.275,-0.02 -0.36625,-0.0637 l -0.16125,-0.15 c -0.0825,-0.0213 -0.2375,0.0125 -0.365,0.0213 -0.25875,0.0175 -0.465,-0.0125 -0.67,-0.0312 l -0.2025,-0.0125 -0.17625,-0.0975 c -0.11,-0.025 -0.30125,-0.01 -0.44125,0.0113 -0.1375,0.02 -0.2325,0.10875 -0.3775,0.0987 -0.24,-0.0213 -0.4625,-0.0838 -0.71,-0.0662 l -0.3025,0.0425 c -0.1975,0.0163 -0.37875,-0.0263 -0.5375,0.0337 l -0.2475,0.1825 -0.35625,0 c -0.1375,-0.0137 -0.19375,-0.10125 -0.30375,-0.11875 l -0.18125,0.01 c -0.32,-0.0113 -0.64,-0.12125 -0.9475,-0.0312 0.035,0.11625 0.15375,0.2275 0.2575,0.35625 0.08625,0.10875 0.2325,0.23375 0.2575,0.35625 l 0,0.30125 0.13,0.215 -0.085,0.14125 c -0.03875,0.15375 0.05,0.39375 0.065,0.6025 0.0125,0.19625 -0.03625,0.405 -0.04375,0.58 l 0.02125,0.28125 c 0.0075,0.125 -0.015,0.24375 -0.02125,0.3675 -0.01375,0.2125 0.015,0.42375 0,0.62625 l -0.02125,0.18125 0.15,0.21625 c 0.015,0.11375 -0.0825,0.24125 -0.085,0.35625 -0.0025,0.1075 0.0625,0.21875 0.075,0.3325 0.01875,0.1775 0.01875,0.35625 0.0325,0.53875 0.02625,0.38 0.06875,0.775 -0.07375,1.0675 0.12,0.10125 0.175,0.43375 0.125,0.69 l -0.08375,0.1725 0.1175,0.17375 -0.085,0.20375 c -0.05,0.27 0.02125,0.61625 0,0.91625 -0.01875,0.2525 -0.0475,0.53875 -0.065,0.80875 -0.02,0.27875 -0.0125,0.5825 -0.09875,0.785 -0.0775,0.185 -0.2025,0.35125 -0.32375,0.4625 l -0.11625,0.15375 c 0.2425,0.0638 0.5175,-0.02 0.75125,-0.0337 l 0.19375,-0.12 0.2175,0.0775 0.1825,-0.0338 0.19375,0.0225 0.25,-0.0538 0.30125,0.01 0.195,-0.13875 0.20375,-0.0425 0.1625,0.1175 0.22625,-0.0325 c 0.25125,-0.0225 0.505,-0.0675 0.72125,-0.0638 l 0.18375,0 c -0.06875,-0.31625 -0.425,-0.30625 -0.56125,-0.54 -0.10375,-0.17875 -0.1075,-0.44875 -0.11875,-0.71125 -0.01,-0.265 0.04375,-0.58 0,-0.83875 l -0.065,-0.27125 0.0325,-0.27 -0.12875,-0.20375 c -0.02625,-0.1175 0.01125,-0.29625 0.01125,-0.46375 l -0.01125,-0.205 c 0.02125,-0.27625 0.08375,-0.60625 0.0325,-0.8825 -0.0325,-0.1775 -0.20875,-0.3425 -0.22625,-0.485 -0.0275,-0.2425 0.0375,-0.5675 0.02125,-0.8525 l -0.02125,-0.205 c 0,-0.2 -0.04,-0.51375 0,-0.6575 l 0.13,-0.16 c 0.0325,-0.10875 0,-0.3325 0,-0.49625 0,-0.23125 0.01375,-0.4475 0.02125,-0.62625 l 0.02125,-0.17375 -0.1075,-0.17125 c -0.025,-0.12875 0.015,-0.305 0.02,-0.4525 0.0063,-0.1625 -0.02,-0.31875 0.02375,-0.4625 0.16125,0.0187 0.32625,-0.03 0.495,-0.0438 0.125,-0.009 0.27125,0.0275 0.36625,0 l 0.14125,-0.0962 c 0.10375,-0.02 0.27875,0.002 0.3975,0.0213 l 0.28125,0.0537 0.17125,0.15125 0.10875,0.0325 0.11875,0.16125 c 0.12625,0.17 0.29375,0.3175 0.375,0.495 -0.09,0.1475 0.035,0.2425 0.08875,0.35625 0.07,0.14875 0.155,0.38625 0.1725,0.5725 0.02,0.23 -0.08625,0.35 -0.1525,0.52625 -0.0625,0.16625 -0.07625,0.30625 -0.15125,0.42125 -0.21125,0.33375 -0.7425,0.19125 -1.19625,0.215 l -0.0975,0.0963 c -0.09875,0.0362 -0.2975,-0.01 -0.43,-0.0325 -0.1525,-0.0225 -0.29125,-0.06 -0.38625,-0.0312 0.02,0.15125 0.12,0.2675 0.1925,0.3975 0.1,0.19 0.22875,0.32 0.29,0.53125 l 0.12,0.0838 c -0.065,0.14875 0.03375,0.21125 0.085,0.30375 0.13625,0.2375 0.2675,0.4525 0.41,0.68875 l 0.1075,0.16125 -0.01,0.1525 0.16125,0.21625 0.19375,0.3 0.21625,0.25875 0.185,0.29 0,0.1625 0.10375,0.1075 0.0975,0.1275 c 0.105,0.12 0.2925,0.2125 0.3375,0.35875 l 0.0087,0.13875 0.215,0.185 0.15,0.19375 c 0.21875,0.22 0.64875,0.4675 0.9275,0.67625 l 0.305,0.2375 c 0.11875,0.03 0.3,-0.0225 0.375,0 0.135,0.13625 0.34875,0.24375 0.505,0.37875 l 0.1625,0.14 c 0.09375,0.0325 0.2375,0.0312 0.36625,0.0625 0.12375,0.0312 0.255,0.0738 0.355,0.0888 l 0.24875,0.03 0.14125,-0.0738 c 0.0825,-0.0125 0.21625,0.045 0.33375,0.0538 0.6825,0.045 1.34375,0.0312 1.9725,-0.0325 -0.1575,-0.225 -0.5525,-0.21125 -0.74375,-0.4 m 5.7125,-10.47375 0.29875,0.14875 0.26125,0.13125 0.15,0.0312 0.11875,0.10625 0.20625,0.0888 0.14125,0.15 c 0.12,0.0725 0.27125,0.0775 0.26875,0.24875 0.175,0.0338 0.2725,0.255 0.46125,0.205 l -0.1925,-0.205 c -0.205,-0.18625 -0.4125,-0.40375 -0.65875,-0.54 -0.14625,-0.08 -0.32875,-0.13375 -0.495,-0.20375 -0.17125,-0.0725 -0.34875,-0.145 -0.54125,-0.17375 l -0.01875,0.0125 m 0.2575,10 c 0.10375,-0.0975 0.2525,-0.14 0.3875,-0.1925 0.305,-0.1175 0.5075,-0.24625 0.78875,-0.4 l 0.3875,-0.205 c 0.09125,-0.12 0.05,-0.3475 0.10625,-0.4825 l 0.27,-0.18625 0.16,0.0113 0.09625,-0.21375 0.1425,-0.24875 0.11875,-0.26875 c 0.0525,-0.10375 0.19,-0.1725 0.25625,-0.2925 0.06875,-0.12375 0.1075,-0.32125 0.16125,-0.505 0.06875,-0.22875 0.195,-0.39125 0.215,-0.60375 0.03875,-0.37625 0.09875,-0.71625 0.12125,-1.05625 0.025,-0.485 -0.0225,-0.89375 -0.14,-1.26 -0.08625,-0.26125 -0.1875,-0.5525 -0.27125,-0.7875 -0.25,-0.0825 -0.17,-0.47875 -0.35375,-0.61625 -0.1125,-0.085 -0.38125,-0.009 -0.40125,-0.17125 l 0.10875,-0.27875 -0.1375,-0.20625 -0.14,-0.22625 c -0.11875,-0.095 -0.36875,-0.12625 -0.3125,-0.37625 -0.29125,-0.28875 -0.61125,-0.55375 -1.00625,-0.745 l 0.055,-0.0987 c -0.105,-0.11625 -0.29875,-0.14625 -0.4725,-0.215 -0.16375,-0.0638 -0.355,-0.14625 -0.5275,-0.16125 l -0.29,-0.01 -0.19375,-0.0113 0.43875,0.16125 c -0.1975,0.11 -0.49875,0.0362 -0.53875,-0.1725 l -0.11625,0.0225 c -0.16625,-0.03 -0.2775,-0.1875 -0.475,-0.20375 l -0.26875,0.0525 -0.28125,-0.0213 c -0.29,-0.0125 -0.59375,-0.0187 -0.82875,-0.0312 l -0.27,-0.0125 -0.1825,0.22625 c -0.2025,0.0575 -0.4575,0.0625 -0.63625,0.14 l -0.14,-0.11625 -0.18375,0.0638 c -0.17875,0.0738 -0.43375,0.1225 -0.56,0.205 l -0.175,0.17375 -0.16875,-0.0125 c -0.13375,0.0287 -0.14375,0.23125 -0.31375,0.18375 l -0.21625,0.24875 -0.28875,0.18125 c -0.25875,0.2275 -0.435,0.515 -0.68,0.755 0.08125,0.15625 -0.0275,0.22125 -0.1075,0.335 -0.11125,0.1475 -0.18125,0.25 -0.25875,0.40875 -0.065,0.13 -0.1725,0.22625 -0.07625,0.34375 -0.10375,0.065 -0.1225,0.1775 -0.1725,0.315 l -0.065,0.215 c -0.03125,0.15125 -0.07625,0.34625 0.01,0.4425 l 0.10875,-0.185 c 0.12375,-0.25125 0.3125,-0.475 0.4975,-0.68 0.18875,-0.21 0.355,-0.43625 0.5575,-0.62375 0.19625,-0.002 0.25,-0.14625 0.3875,-0.205 0.025,-0.19625 0.16375,-0.32125 0.38,-0.29 0.0625,-0.11125 0.1475,-0.26 0.3,-0.2475 l -0.03125,0.12875 c 0.13,0.0238 0.25125,-0.045 0.36375,-0.0875 0.12375,-0.0425 0.25625,-0.0638 0.38,-0.0963 0.25125,-0.065 0.50875,-0.135 0.80875,-0.14125 0.2075,-0.004 0.42375,-0.0238 0.6225,-0.009 0.45,0.0312 0.9025,0.06 1.3275,0.1175 0.2075,0.0287 0.43875,0.12 0.63625,0.20375 0.1925,0.0812 0.3675,0.18875 0.54,0.3025 0.28625,0.19375 0.71125,0.51625 0.83875,0.85 l 0.0625,0.23875 c 0.0475,0.0963 0.1725,0.15875 0.19625,0.28125 l 0.12,0.0525 c 0.14125,0.58125 0.40625,1.1525 0.35375,1.85375 -0.05625,-0.13375 -0.03,-0.315 -0.1275,-0.3875 -0.02625,0.22 0.0375,0.42625 0.0325,0.64625 -0.0063,0.29625 -0.04875,0.57 -0.14,0.74375 l -0.11875,0.185 -0.01,0.105 c -0.04875,0.165 -0.19125,0.36375 -0.31625,0.495 -0.18375,0.2025 -0.32625,0.3925 -0.5825,0.46625 l -0.01,0.13 c -0.275,0.13125 -0.66125,0.28625 -1.00125,0.3875 -0.19,0.055 -0.3725,0.16 -0.51625,0.0525 l -0.24875,0.12 -0.13,-0.055 -0.07625,0.33625 c -0.25125,-0.0812 -0.4425,-0.22 -0.665,-0.325 -0.17125,-0.0175 -0.315,0.0287 -0.465,0.0213 -0.2175,-0.0138 -0.30875,-0.12875 -0.48375,-0.19375 -0.25625,-0.0937 -0.47875,-0.11 -0.5925,-0.28 l -0.13125,0.02 c -0.0575,-0.17625 -0.205,-0.29875 -0.3125,-0.43 l -0.09625,-0.15125 -0.2375,-0.0987 -0.0975,-0.2125 c -0.13625,-0.2825 -0.37875,-0.57625 -0.46125,-0.91625 -0.0275,-0.10625 -0.05625,-0.25625 -0.0775,-0.39 -0.01875,-0.135 -0.0525,-0.3175 -0.04375,-0.41875 l 0.0875,-0.22625 c 0.09375,-0.225 0.2125,-0.4425 0.29125,-0.66875 -0.05375,-0.1375 -0.2,-0.23875 -0.21625,-0.37625 l 0.3125,0.0538 c 0.14125,-0.0788 0.22375,-0.23375 0.3575,-0.32375 l 0.11625,-0.0425 c 0.1625,-0.0875 0.30375,-0.24125 0.50875,-0.28125 0.33125,0.0475 0.78,-0.0187 0.97875,0.16125 l 0.0975,-0.01 c 0.12625,0.11625 0.27125,0.19 0.41,0.3025 0.09625,0.0775 0.18125,0.1875 0.3125,0.225 0.03625,-0.3975 -0.1825,-0.73 -0.3575,-0.9925 -0.11125,-0.0763 -0.225,-0.22 -0.38625,-0.3125 -0.1475,-0.0838 -0.35875,-0.19875 -0.52875,-0.1825 l -0.225,0.0637 -0.13,-0.15 c -0.25875,0.0263 -0.6475,-0.0725 -0.765,0.0975 -0.1225,-0.10125 -0.285,0 -0.43125,0.0525 l -0.31125,0.11 -0.1525,0.11625 c -0.14875,0.1 -0.31,0.1725 -0.42125,0.26125 l -0.0975,-0.0562 c -0.1275,0.0662 -0.18875,0.2 -0.26875,0.31375 l -0.215,0.18375 c -0.1075,0.1125 -0.205,0.2025 -0.26875,0.345 l 0.0425,0.11875 -0.16,0.11875 c -0.0975,0.115 -0.11125,0.30875 -0.185,0.4525 0.1125,0.1025 0.09625,0.375 -0.085,0.38625 -0.04,0.27625 -0.11,0.535 -0.10875,0.82125 0.05125,0.0725 0.135,0.1675 0.1175,0.28 l -0.08625,0.15125 c 0.0575,0.64 0.245,1.215 0.5075,1.7425 0.0825,0.16875 0.20375,0.34875 0.31375,0.52 0.11,0.175 0.235,0.3625 0.36625,0.475 0.13625,0.115 0.48625,0.1125 0.54875,0.2675 l 0.01,0.15125 0.1625,0.205 c 0.14625,0.17125 0.25125,0.25 0.42,0.3775 l 0.25875,0.16 0.29125,0.0125 c 0.15125,10e-4 0.31,0.0738 0.4525,0.075 0.145,0.0713 0.25125,0.265 0.45375,0.29125 l 0.19375,-0.0225 c 0.36875,-0.006 0.81125,0.11125 1.20625,0.0537 l 0.3125,-0.1175 0.15125,0.0862 c 0.08,0.0113 0.22875,-0.0425 0.355,-0.065 0.125,-0.0225 0.2575,-0.045 0.36625,-0.065 0.245,-0.0425 0.53625,-0.0562 0.735,-0.11625 0.2075,-0.0675 0.31875,-0.23125 0.5475,-0.2175 0.1025,-0.0575 0.235,-0.1175 0.35375,-0.17125 0.12125,-0.0562 0.2925,-0.085 0.31625,-0.205 -0.21625,-0.0275 -0.41,0.1975 -0.67,0.16 m -17.43625,-9.0725 -0.08875,-0.13 c -0.02875,-0.14375 0.08125,-0.26 0.09875,-0.34625 0.0175,-0.0788 -0.005,-0.21 0,-0.32375 l 0.0125,-0.2375 -0.05625,-0.1275 c -0.02125,-0.12875 -0.0012,-0.3075 0,-0.45375 l 0.03375,-0.31125 c -0.2775,-0.06 -0.63375,-0.01 -0.8875,0.0113 -0.475,0.0388 -1.00375,-0.0512 -1.5475,-0.0113 l -0.30375,0.0425 c -0.4025,0.02 -0.90875,-0.01 -1.35,0.01 l -0.22375,0.0113 -0.2475,-0.1175 c -0.11125,-0.0138 -0.27,0.0163 -0.43125,0.0213 -0.14875,0.006 -0.31,-0.02 -0.45375,-0.01 l -0.22625,0.0325 c -0.33875,0.0238 -0.73,-0.05 -0.93625,0.0412 -0.08875,-0.085 -0.21125,-0.04 -0.35625,-0.0412 l -0.24875,-0.0325 -0.27875,0 c -0.1425,-0.0125 -0.28375,-0.045 -0.3775,-0.0225 l -0.16125,0.085 -0.215,-0.02 c -0.24625,-0.0187 -0.5775,-0.0275 -0.79875,-0.02 l -0.2175,0.0625 0.19625,0.22875 c 0.1075,0.1175 0.24625,0.1975 0.31125,0.3425 0.13,0.025 0.145,0.125 0.205,0.22625 l 0.09625,0.14125 0,0.13875 c 0.035,0.19375 0.18125,0.34625 0.2075,0.53875 0.01875,0.14 -0.0063,0.305 -0.0125,0.465 -0.0037,0.15125 0,0.315 -0.02,0.4525 l -0.04375,0.20375 c 0.01,0.15125 0.16,0.30375 0.1825,0.495 0.0525,0.4475 -0.01875,0.92375 -0.0325,1.305 l 0.14125,0.0862 c -0.01,0.17375 0.03375,0.3375 0,0.52875 -0.02375,0.12875 -0.13875,0.2325 -0.15125,0.36625 -0.01375,0.13125 0.03375,0.2925 0.02125,0.44125 -0.0225,0.2775 -0.01375,0.55125 0,0.8725 0.01,0.22875 -0.0025,0.4725 -0.01125,0.66875 l -0.02,0.21625 c 0.02,0.1775 0.22875,0.31375 0.2475,0.49375 -0.15125,0.0912 -0.09875,0.315 -0.08625,0.5825 0.0075,0.1625 -0.015,0.3325 -0.01,0.46375 l 0.02,0.2475 c -0.015,0.1425 -0.15375,0.2025 -0.17125,0.2925 l 0.02,0.28125 0.02125,0.28875 c 0.035,0.44625 -0.05,0.72875 -0.16,1.04625 -0.1075,0.30875 -0.22,0.60625 -0.325,0.895 -0.05375,0.15 -0.0925,0.31 -0.16125,0.45125 -0.12,0.24875 -0.3575,0.4025 -0.41,0.70125 l 0.21625,-0.065 c 0.09375,-0.0163 0.22,0.004 0.3325,-0.0213 l 0.205,-0.0762 0.28125,0.065 c 0.2625,-0.0125 0.495,-0.26125 0.7875,-0.28 l 0.12875,0.0113 c 0.275,-0.0163 0.50375,-0.16875 0.75375,-0.1825 l 0.29125,0.0113 c 0.22375,-0.0163 0.445,-0.0963 0.65875,-0.1525 0.33375,-0.085 0.7025,-0.0838 1.06625,-0.095 -0.225,-0.29125 -0.55125,-0.47875 -0.7225,-0.81 -0.16125,-0.3175 -0.15625,-0.885 -0.12875,-1.325 0.01,-0.16125 -0.0075,-0.32375 0,-0.47375 l 0.03375,-0.3025 -0.1175,-0.19375 c -0.03625,-0.15 0.01,-0.33 0.03875,-0.4 l 0.2075,-0.2375 c 0.02125,-0.10625 -0.05125,-0.3 -0.07625,-0.47375 -0.03875,-0.27375 -0.0062,-0.6225 -0.09875,-0.82875 l -0.09625,-0.15125 c -0.02625,-0.15125 0.06125,-0.38625 0.0875,-0.49625 0.14,-0.0237 0.26625,-0.004 0.3975,-0.009 0.1275,-0.008 0.27875,-0.0462 0.4,-0.0225 l 0.15125,0.075 0.2575,-0.0213 0.2575,-0.0225 0.16375,-0.0975 0.225,0.0238 c 0.14875,0 0.3375,-0.05 0.455,-0.0238 l 0.1625,0.0975 0.1825,0 0.225,0.0225 0.12875,-0.0425 0.34375,0.1625 c 0.12125,0.06 0.23375,0.125 0.3575,0.14875 -0.0075,-0.27375 -0.22875,-0.425 -0.27,-0.70125 0.1675,-0.14125 0.405,-0.21125 0.5925,-0.3325 0.195,0.0725 0.33,-0.0913 0.5275,-0.17375 0.11875,-0.05 0.3925,-0.105 0.38875,-0.22625 l -0.26,-0.1725 c -0.09125,-0.0575 -0.1775,-0.1375 -0.29,-0.19375 l -0.30125,-0.18375 -0.1275,0.0338 -0.24875,-0.18375 -0.23875,-0.205 0.06625,-0.25875 0.04125,-0.26875 -0.19375,0.0762 -0.18125,0.0525 c -0.1525,0.0662 -0.28125,0.1925 -0.42125,0.20375 -0.51625,0.0488 -1.015,-0.10625 -1.5425,-0.0425 l -0.09625,0.14 -0.195,-0.0312 c -0.29125,-0.0187 -0.73625,-0.0725 -1.01,-0.11875 -0.07,-0.22875 -0.21625,-0.79375 0.06125,-0.905 l 0,-0.83 c -0.055,-0.115 -0.2475,-0.29375 -0.25625,-0.43125 -0.0125,-0.15625 0.12875,-0.29875 0.15125,-0.4625 0.195,-0.009 0.365,-0.025 0.54875,-0.0325 0.19125,-0.008 0.385,0.0612 0.55875,0.0325 l 0.1625,-0.0875 c 0.18625,-0.0388 0.4125,0.03 0.62375,0 0.05625,0.055 0.18,0.11375 0.3025,0.0975 l 0.15125,-0.075 0.2375,0.11625 c 0.0875,-0.0788 0.21375,-0.055 0.3775,-0.0625 0.285,-0.0125 0.71375,-0.0675 0.94875,-0.0213 l 0.13125,0.0538 c 0.1225,0.0125 0.2825,-0.0525 0.38625,-0.0438 0.285,0.155 0.5675,0.335 0.84,0.49625 l 0.28,0.14875 c 0.06875,-0.16625 -0.0475,-0.37375 -0.0725,-0.55875 l -0.0225,-0.23625 m 47.75375,-1.95 -0.10625,0.0937 c -0.21875,0.15375 -0.39875,0.445 -0.425,0.7975 -0.00875,0.14375 0.01625,0.2975 0.0125,0.4525 l -0.03125,0.335 c 0.00125,0.1225 0.035,0.25 0.01875,0.34625 l -0.07625,0.16125 0,0.22625 0.0975,0.11875 c 0.04875,0.115 0.00375,0.315 0.01375,0.4625 0.01125,0.2225 0.06625,0.44875 0.03125,0.625 l -0.085,0.16125 0.11,0.14125 -0.025,0.16 c 0,0.2725 0.045,0.55375 0.025,0.8425 -0.05625,0.72125 -0.0125,1.58875 -0.04625,2.36125 -0.00375,0.15 -0.0025,0.30875 0,0.4525 l 0.02125,0.3225 -0.13,0.20375 -0.02125,0.41 c 0.01625,0.12125 0.12625,0.14875 0.14125,0.27 l -0.02125,0.1825 c -0.01375,0.145 0.01125,0.3175 0,0.44125 -0.01375,0.115 -0.085,0.22375 -0.01375,0.335 -0.03375,0.14125 -0.02125,0.33125 -0.02125,0.54875 0,0.185 -0.0425,0.475 0.0125,0.5925 l 0.1525,0.14125 -0.07375,0.21625 -0.07,0.22625 0.08,0.17125 c 0.0125,0.13 -0.07625,0.27625 -0.05625,0.42 l 0.06625,0.14 c 0.03,0.1675 -0.02,0.43125 -0.02,0.6375 l -0.025,0.26875 c -0.0175,0.12125 0.0425,0.25 -0.03125,0.345 l -0.07875,-0.12875 c -0.04625,-0.14625 -0.0775,-0.34 -0.15,-0.47375 l -0.16,-0.2475 -0.06125,-0.1825 c -0.08,-0.17 -0.23,-0.33 -0.34625,-0.49875 l -0.1625,-0.25875 -0.185,-0.2375 c -0.11625,-0.18375 -0.19375,-0.41625 -0.32,-0.5825 l -0.2175,-0.1925 -0.23625,-0.345 c -0.095,-0.115 -0.3075,-0.19375 -0.37875,-0.31125 l -0.075,-0.1825 -0.225,-0.075 -0.15125,-0.28125 c -0.0425,-0.0675 -0.15875,-0.1575 -0.24625,-0.27125 -0.09375,-0.1225 -0.17875,-0.22375 -0.27125,-0.29125 -0.1275,-0.0888 -0.34625,-0.15375 -0.39625,-0.2675 -0.04,-0.09 0.01375,-0.21 -0.01125,-0.34625 -0.035,-0.1825 -0.24375,-0.275 -0.37875,-0.41875 l -0.1325,-0.195 -0.2925,-0.25875 -0.2675,-0.26875 -0.30125,0.0875 -0.225,-0.27 c -0.1725,-0.2025 -0.30375,-0.30875 -0.4625,-0.51875 l -0.24,-0.24875 -0.235,-0.0538 -0.0875,-0.12875 -0.10875,-0.0962 -0.09875,-0.1725 c -0.1025,-0.14875 -0.23,-0.24 -0.31,-0.35625 l -0.1175,-0.0312 c -0.1125,-0.1175 -0.2,-0.26 -0.35375,-0.335 -0.07,0.1825 0,0.42 0.02,0.60375 l -0.01125,0.2575 0.05375,0.28125 c 0.0575,0.44 0.01625,0.96375 0.035,1.35875 l 0.0087,0.215 -0.19375,0.25875 c 0.0062,0.2775 -0.0075,0.58125 0.01125,0.8725 0.0175,0.28375 0.1175,0.54125 -0.0325,0.7125 0.2225,0.47125 -0.04,1.22375 0.10875,1.765 0.065,0.2475 0.265,0.4525 0.4075,0.6375 l 0.11875,0.225 -0.22625,-0.009 c -0.27625,-0.0462 -0.62125,-0.02 -0.96,-0.0425 -0.14875,-0.0113 -0.3075,-0.0263 -0.46125,-0.0325 -0.1675,-0.0112 -0.34125,0.0113 -0.47375,-0.0225 l -0.1725,-0.0875 c -0.325,-0.0675 -0.62125,0.12125 -0.8975,0.0112 0.025,-0.1725 0.20625,-0.2475 0.2975,-0.38875 l 0.06625,-0.13875 0.165,-0.1925 c 0.12375,-0.2575 0.06875,-0.7175 0.09625,-1.0575 l -0.0088,-0.26875 c 0,-0.1325 0.03125,-0.27875 0.0088,-0.3775 l -0.10625,-0.19625 c -0.02375,-0.12125 0.0325,-0.24125 0.0425,-0.365 0.01375,-0.18375 0.0175,-0.425 0.0325,-0.6575 0.0087,-0.15125 0.0275,-0.35 0,-0.495 l -0.09625,-0.21625 0.03125,-0.30125 c 0.0063,-0.12125 -0.01875,-0.2475 0,-0.3325 l 0.14125,-0.20625 0,-0.27125 c 0.0063,-0.15125 0.02125,-0.33 0.0225,-0.505 0.0038,-0.19125 0.055,-0.36375 0.0325,-0.4975 -0.025,-0.13 -0.2175,-0.24875 -0.2275,-0.39625 l 0.0425,-0.1725 c 0.06,-0.33125 0.0038,-0.82125 0.0325,-1.2075 0.0087,-0.115 0.05,-0.23875 0.04375,-0.335 l -0.0975,-0.3025 c -0.02125,-0.15625 0.015,-0.355 0.02125,-0.53875 0.0087,-0.19 -0.025,-0.38625 0,-0.54875 0.0275,-0.1925 0.1675,-0.405 0.1525,-0.595 -0.0087,-0.1225 -0.15375,-0.225 -0.17375,-0.35375 -0.02875,-0.1925 0.0225,-0.445 0.03125,-0.6575 0.01125,-0.2275 -0.025,-0.44875 0.03375,-0.635 l 0.27,0.18125 0.29125,0.185 0.43,0 c 0.38875,0.44125 0.85625,0.8125 1.30375,1.20625 0.3325,0.29375 0.65875,0.58375 1.0125,0.86375 0.11625,0.0925 0.21625,0.1975 0.325,0.30125 l 0.235,0.20375 -0.0425,0.21625 0.29,0.30125 c 0.23375,0.205 0.36625,0.38375 0.5925,0.59125 l 0.29875,0.29375 0.3725,0.075 0.12,0.1625 c 0.11625,0.14625 0.29,0.29 0.40875,0.42125 l 0.16875,0.2025 c 0.31125,0.28875 0.6575,0.595 0.98125,0.8725 0.14,0.12 0.23625,0.275 0.38125,0.36625 0.05125,-0.23875 0,-0.52375 -0.01125,-0.81875 -0.01125,-0.29 0.025,-0.59625 -0.01125,-0.8625 -0.01875,-0.13875 -0.16375,-0.2925 -0.15125,-0.41875 l 0.13875,-0.24 c 0.05375,-0.195 0.0575,-0.65625 0.04375,-0.905 l -0.02,-0.11625 c -0.03875,-0.11375 -0.18375,-0.17125 -0.19625,-0.2925 l 0.04625,-0.1825 c 0.015,-0.12625 -0.01875,-0.3175 0.01,-0.4625 l 0.05375,-0.1725 -0.09875,-0.195 c -0.04125,-0.19375 0.0075,-0.40875 0.01,-0.59375 0.00375,-0.17875 0.02125,-0.3825 -0.055,-0.54875 -0.055,-0.1275 -0.1775,-0.255 -0.265,-0.35625 -0.08375,-0.09 -0.21875,-0.125 -0.2275,-0.29 0.2,-0.0838 0.59,0.004 0.83875,0.0113 0.13375,0.004 0.2675,-0.008 0.39,0 l 0.2,0.0337 c 0.13,-0.001 0.2575,-0.055 0.38125,-0.0675 0.15375,-0.0125 0.30625,0.0213 0.46125,0.0225 0.15,10e-4 0.3025,-10e-4 0.455,0 0.14125,10e-4 0.30375,-0.0325 0.43,0.045"/>
      <path id="path14290" style="fill:#296abc;fill-opacity:1;fill-rule:nonzero;stroke:none" d="m -26.631815,633.69792 c -0.3675,0.0863 -1.335,0.13375 -1.335,0.13375 l -0.11875,0.38375 c 0,0 0.47875,-0.0438 0.83125,-0.008 0,0 0.11125,-0.0112 0.12625,0.13125 0.0062,0.13 -0.01125,0.27375 -0.01125,0.27375 0,0 -0.0075,0.0862 -0.1275,0.10875 -0.13375,0.0225 -1.04125,0.06 -1.04125,0.06 l -0.14625,0.49875 c 0,0 -0.055,0.11375 0.06625,0.0825 0.11375,-0.0312 1.06625,-0.21375 1.18625,-0.18875 0.13875,0.035 0.2875,0.2125 0.245,0.37375 -0.04875,0.2025 -1.00375,0.80875 -1.5825,0.76875 0,0 -0.3025,0.0175 -0.55875,-0.39125 -0.24375,-0.3925 0.08875,-1.135 0.08875,-1.135 0,0 -0.1525,-0.3475 -0.04125,-0.4625 0,0 0.0625,-0.0587 0.25125,-0.0737 l 0.23125,-0.48125 c 0,0 -0.26625,0.0175 -0.4225,-0.1775 -0.14375,-0.185 -0.155,-0.27 -0.04375,-0.32 0.12,-0.0613 1.2225,-0.26375 1.98375,-0.23875 0,0 0.265,-0.0275 0.49625,0.43 0,0 0.11125,0.1875 -0.0775,0.23125"/>
      <path id="path14294" style="fill:#296abc;fill-opacity:1;fill-rule:nonzero;stroke:none" d="m -29.490578,635.55741 c -0.0975,0.22875 -0.35625,0.475 -0.67125,0.3225 -0.32,-0.1525 -0.82375,-1.18375 -0.82375,-1.18375 l -0.2275,-0.37125 c 0,0 -0.03875,-0.075 -0.06625,0.3425 -0.0275,0.41875 0.0087,1.235 -0.1625,1.365 -0.155,0.12625 -0.34625,0.0738 -0.44875,-0.0738 -0.0875,-0.14875 -0.125,-0.5 -0.075,-1.12 0.055,-0.6175 0.1975,-1.27625 0.38,-1.48125 0.18375,-0.2025 0.33625,-0.055 0.39125,-10e-4 0,0 0.2425,0.22 0.6475,0.8725 l 0.07125,0.1225 0.41125,0.6125 0.05375,0.009 0.02375,-0.20875 c 0,0 -0.075,-0.6725 -0.41625,-1.80875 0,0 -0.05125,-0.14125 -0.01625,-0.275 0.035,-0.1325 0.16625,-0.0712 0.16625,-0.0712 0,0 0.52125,0.25875 0.77625,1.10625 0.25,0.84625 0.0825,1.61125 -0.01375,1.8425"/>
      <path id="path14298" style="fill:#296abc;fill-opacity:1;fill-rule:nonzero;stroke:none" d="m -32.047565,633.38205 c -0.04875,0.0862 -0.07375,0.21125 -0.28875,0.24375 0,0 -2.1025,0.14875 -2.2075,0.29375 0,0 -0.07,0.0875 0.04375,0.11125 0.11875,0.025 0.5925,0.0875 0.81875,0.0987 0.2475,0.003 1.07125,0.008 1.37,0.38 0,0 0.17375,0.175 0.1675,0.5725 -0.0063,0.40875 -0.08,0.555 -0.23875,0.70125 -0.16375,0.13625 -1.5875,0.7775 -2.505,-0.20125 0,0 -0.4225,-0.4725 0.14375,-0.83 0,0 0.41125,-0.25 1.4525,0.0412 0,0 0.3175,0.1125 0.3025,0.23 -0.01875,0.12375 -0.26,0.25375 -0.61125,0.24625 -0.3425,-0.009 -0.59375,-0.1725 -0.54375,-0.14625 0.045,0.0175 -0.3675,-0.2 -0.4975,-0.055 -0.125,0.13875 -0.09625,0.22375 0.03,0.30625 0.31875,0.18 1.54875,0.11625 1.91625,-0.29375 0,0 0.14875,-0.16875 -0.075,-0.30125 -0.2225,-0.12875 -0.86,-0.20375 -1.1075,-0.215 -0.23625,-0.0125 -1.1175,0.004 -1.24875,-0.22875 0,0 -0.125,-0.16 0.01125,-0.60625 0.15,-0.47125 1.1775,-0.6525 1.61875,-0.69375 0,0 1.22625,-0.0462 1.455,0.2025 l -0.0063,0.14375"/>
      <path id="path14302" style="fill:#296abc;fill-opacity:1;fill-rule:nonzero;stroke:none" d="m -35.517065,636.14041 c -0.14875,0.10875 -0.4625,0.06 -0.55375,-0.0587 -0.08875,-0.11375 -0.11875,-0.54625 -0.10125,-1.2325 0.015,-0.6925 0.02875,-1.5475 0.18125,-1.68375 0.15375,-0.13625 0.2525,-0.0162 0.31375,0.0763 0.0675,0.0925 0.14625,0.19625 0.1625,0.4125 0.01625,0.21625 0.07,1.3525 0.07,1.3525 0,0 0.065,1.02625 -0.0725,1.13375"/>
      <path id="path14306" style="fill:#296abc;fill-opacity:1;fill-rule:nonzero;stroke:none" d="m -36.379815,631.28905 c -0.1275,0.20375 -0.13375,0.32625 -0.075,0.41 0.14875,-0.2225 0.41375,-0.57125 0.8025,-0.83875 -0.30125,0.0275 -0.555,0.15875 -0.7275,0.42875 m 1.735,-0.345 c -0.39625,0.0588 -1.00625,0.59 -1.295,1.025 0.44625,0.0825 1.23,0.0487 1.58125,-0.66375 0,0 0.1675,-0.44 -0.28625,-0.36125 m -0.56,1.52625 c -0.4325,0.145 -0.72625,0.0987 -0.97875,-0.01 -0.10875,0.1925 -0.175,0.25375 -0.2575,0.26375 -0.12375,0.0137 -0.235,-0.18375 -0.25625,-0.2475 -0.01875,-0.0487 -0.08,-0.1325 -0.0075,-0.32375 -0.245,-0.22125 -0.2625,-0.51375 -0.2225,-0.715 0.06,-0.23 0.4725,-1.10375 1.73,-1.20875 0,0 0.61375,-0.045 0.71875,0.28375 l 0.02125,-10e-4 c 0,0 0.595,10e-4 0.58125,0.5325 -0.0025,0.53125 -0.65875,1.1975 -1.32875,1.42625"/>
      <path id="path14310" style="fill:#296abc;fill-opacity:1;fill-rule:nonzero;stroke:none" d="m -24.383815,633.98179 c -0.23125,0.25375 -0.645,0.73 -0.97625,1.3775 0.35125,-0.0387 0.68625,-0.22875 0.7875,-0.3275 0.16625,-0.14875 0.55125,-0.5475 0.49,-1.0775 0,0 -0.03625,-0.27375 -0.30125,0.0275 m -1.30625,2.13625 c -0.28875,0.71125 -0.535,1.42875 -0.6725,2.50625 0,0 -0.0325,0.20875 -0.20625,0.13875 -0.17125,-0.0613 -0.45625,-0.34625 -0.5175,-0.74375 -0.0625,-0.52125 0.17,-1.4 0.6425,-2.41 -0.13875,-0.22375 -0.2325,-0.545 -0.15125,-1.0025 0,0 0.1175,-0.8475 0.96625,-1.6125 l 0.16,-0.0612 c 0.06875,0.0275 0.03875,0.30375 -0.01375,0.4375 -0.05625,0.135 -0.42875,0.78875 -0.42875,0.78875 0,0 -0.23875,0.44375 -0.17125,0.7925 0.44375,-0.6875 1.4575,-2.07125 2.085,-1.63625 0.39625,0.2825 0.39625,1.19375 0.0975,1.725 -0.235,0.415 -0.9,1.27875 -1.79,1.0775"/>
      <path id="path14314" style="fill:#296abc;fill-opacity:1;fill-rule:nonzero;stroke:none" d="m -43.677428,634.2448 c -0.27,0.13 -0.0825,0.325 -0.0825,0.325 0.50875,0.54375 1.135,0.8875 1.72625,1.0975 0.07,-0.9425 0.06,-1.27375 0.065,-1.74875 -0.93,0.0662 -1.46625,0.21375 -1.70875,0.32625 m 5.23875,2.24625 c -1.10875,0.33625 -2.15625,0.17875 -2.7325,0.0338 -0.01,0.22625 -0.03625,0.3225 -0.07375,0.3625 -0.0475,0.0488 -0.41125,0.25875 -0.61125,-0.0387 -0.0875,-0.14125 -0.13125,-0.39625 -0.15875,-0.6225 -1.28875,-0.5875 -1.88375,-1.4425 -1.90125,-1.48125 -0.03125,-0.0263 -0.3275,-0.3325 -0.0325,-0.70875 0.275,-0.34125 1.1775,-0.68125 1.98875,-0.8175 0.02625,-0.69375 0.105,-1.22125 0.20125,-1.46 0.1175,-0.27875 0.265,-0.0275 0.39625,0.15875 0.10875,0.14 0.17375,0.745 0.17875,1.23125 0.53125,-0.0275 0.845,0.0125 1.43625,0.11875 0.77,0.1375 1.2875,0.53125 1.245,0.9775 -0.0375,0.43625 -0.44125,0.62 -0.5925,0.63375 -0.16,0.0125 -0.41,-0.1025 -0.41,-0.1025 -0.175,-0.08 -0.01375,-0.1525 0.1925,-0.2425 0.22375,-0.11 0.1725,-0.22375 0.1725,-0.22375 -0.0825,-0.2425 -1.085,-0.41375 -2.0775,-0.4125 -0.005,0.55 0.0225,1.46125 0.03875,1.9925 0.69625,0.13125 1.2175,0.105 1.2175,0.105 0,0 2.53875,-0.075 2.61375,-1.6975 0.0775,-1.625 -2.54,-3.18125 -4.4725,-3.67375 -1.92875,-0.505 -3.02,-0.14875 -3.115,-0.1 l -0.0063,0.0675 c 0,0 0.10375,0.015 0.2875,0.0762 0.19,0.0613 0.04125,0.16 0.04125,0.16 -0.3275,0.105 -0.70125,0.0387 -0.77,-0.11 -0.07125,-0.14875 0.04625,-0.285 0.18375,-0.48125 0.1375,-0.20125 0.28875,-0.19625 0.28875,-0.19625 2.3875,-0.83 5.29625,0.66 5.29625,0.66 2.7225,1.37125 3.18875,2.99 3.14125,3.61875 -0.0475,0.61625 -0.2825,1.65875 -1.96625,2.1725"/>
      <path id="path14318" style="fill:#296abc;fill-opacity:1;fill-rule:nonzero;stroke:none" d="m -21.131315,634.12867 0.21125,-0.0163 c 0.30875,-0.0538 0.47625,-0.21625 0.44125,-0.3325 -0.08125,-0.22875 -0.65875,-0.26875 -1.14,-0.505 -0.26625,-0.125 -0.44125,-0.2875 -0.58875,-0.47375 -0.145,-0.185 -0.27375,-0.40875 -0.37875,-0.765 0.01375,0.13125 0.02625,0.2425 0.04,0.35125 -0.0225,0.38375 -0.11625,0.56625 -0.3125,0.86 -0.10875,0.14375 -0.18375,0.2475 -0.2525,0.355 l -0.1075,0.30875 c 0.0275,0.0888 0.1725,0.15125 0.37,0.075 0.20125,-0.0675 0.405,-0.305 0.4475,-0.56 0.01125,-0.12625 0.01625,-0.22875 0.01375,-0.3225 0.07,0.20125 0.17375,0.4175 0.40125,0.65875 0.23375,0.24375 0.575,0.3575 0.855,0.36625 m -11.8425,-7.75375 0,0.0825 c 0.3325,0.025 0.67,0.0575 1.0075,0.0975 0.71625,0.18125 1.42,0.5175 1.39875,1.1825 -0.0125,0.47125 -0.27125,0.69375 -0.52,0.6975 -0.37375,0.006 -0.36875,-0.27625 -0.3,-0.45 -0.045,-0.155 -0.28125,0.2175 -0.25,0.3825 0.07625,0.36125 0.44375,0.5625 0.75125,0.49125 0.9125,-0.21375 0.88125,-1.33625 0.25125,-1.835 -0.22,-0.1725 -0.4675,-0.2925 -0.73625,-0.385 0.5325,0.0838 0.99,0.21 1.4725,0.41125 0.65375,0.2725 1.5025,0.75375 1.6575,1.29375 0.08875,0.3075 0.06,0.58875 -0.2325,0.70125 -0.115,0.0375 -0.20875,-0.0312 -0.28875,-0.085 -0.08625,-0.0588 -0.17125,-0.1175 -0.31,-0.09 -0.1575,0.015 -0.2075,0.15 -0.19,0.3025 0.05625,0.49125 1.415,0.56 1.3775,-0.49125 -0.02,-0.6325 -0.3675,-1.08125 -1.25875,-1.4775 0.28625,0.1375 0.88375,0.25375 1.17375,0.38 0.36375,0.1525 2.2525,0.9175 3.28125,1.75625 1.08125,0.88875 2.09,1.8925 2.70375,2.52625 0.915,0.9375 1.5825,1.23125 2.51625,1.3275 1.0625,0.1125 1.78875,-0.46 2.205,-1.08375 0.255,-0.3825 0.37125,-0.9975 0.3675,-1.51 -0.0325,-0.5875 -0.39625,-1.00875 -0.77,-1.29875 -0.28625,-0.21875 -0.62375,-0.36875 -0.98,-0.42625 -0.3775,-0.0562 -0.69125,-0.0113 -1.02375,0.0512 -0.1675,0.0388 -0.3175,0.085 -0.49375,0.15375 -0.1825,0.08 -0.35,0.18 -0.48875,0.3075 -0.2675,0.24125 -0.4125,0.655 -0.22125,0.96875 0.08625,0.225 0.16625,0.42125 0.36875,0.61 0.10125,0.09 0.23875,0.16625 0.40375,0.2125 0.155,0.0438 0.25375,0.045 0.41,0.0113 0.335,-0.09 0.2725,-0.3475 0.1825,-0.575 -0.13,-0.35875 -0.3625,-0.4075 -0.45375,-0.34375 -0.12875,0.06 -0.5425,0.12125 -0.7025,-0.07 -0.06875,-0.33625 0.2225,-0.6175 0.4925,-0.71375 0.2525,-0.105 0.64375,-0.1675 0.97375,-0.155 0.665,-0.0263 1.3475,0.39125 1.51875,0.95 0.48375,1.55875 -1.07625,2.215 -1.685,2.16875 -0.885,-0.0688 -1.51,-0.5475 -2.1175,-1.0775 -0.6775,-0.59625 -1.54875,-1.57375 -2.67375,-2.475 -2.21125,-1.76875 -5.12375,-2.18875 -5.12375,-2.18875 -1.20625,-0.28875 -2.46875,-0.395 -3.69375,-0.3525 l 0,0.0175 -0.0225,-10e-4 0.0225,10e-4 m 6.98375,1.22625 c 0.55375,0.2525 1.08125,0.59125 1.9025,1.03375 0.80875,0.435 1.845,0.53375 2.5225,0.1775 0.6875,-0.33375 0.8575,-0.86625 0.73625,-0.92625 -0.11625,-0.08 -0.43375,0.18375 -0.96875,0.3025 -0.27875,0.07 -0.6225,0.08 -0.99625,0.0362 0.14,-0.0625 0.2625,-0.14125 0.355,-0.23375 0.2725,-0.25625 0.31125,-0.54375 0.1925,-0.615 -0.24625,-0.12 -0.73875,0.165 -1.4125,0.25625 -0.42,0.0525 -0.74,0.0612 -1.06,-0.0338 l -1.1375,-0.405 c -0.56125,-0.26625 -1.80875,-0.59375 -2.92125,-0.51125 0.525,-0.04 2.3275,0.7075 2.7875,0.91875 m 5.09875,8.95625 0.315,0.12375 c 0.20625,0.0488 0.4175,0.0425 0.5775,-0.0187 0.25375,-0.0862 0.35625,-0.25625 0.31125,-0.34875 -0.125,-0.1775 -0.5275,-0.17 -1.0225,-0.2625 -0.5225,-0.0975 -0.7725,-0.1575 -1.26375,-0.50625 0.41375,0.44875 0.5325,0.6575 1.0825,1.0125 m -1.03375,-1.64125 c 0.87625,0.32625 1.17875,0.4925 2.1175,0.6375 l 0.17875,0.0137 c 0.41,0.0138 0.825,-0.0937 1.09875,-0.28625 0.3225,-0.22 0.40625,-0.4875 0.32625,-0.5525 -0.08375,-0.075 -0.27875,0.02 -0.5525,0.09 -0.27125,0.0762 -0.645,0.13875 -1.055,0.19625 -0.84875,0.0813 -1.21,0.10125 -2.11375,-0.0987 m -25.25625,-1.635 c 0.04,0.25375 0.24625,0.49375 0.445,0.55875 0.20125,0.0762 0.3475,0.015 0.37375,-0.075 l -0.10875,-0.30625 c -0.07,-0.10875 -0.145,-0.2125 -0.25375,-0.3575 -0.19375,-0.2925 -0.2875,-0.47375 -0.3125,-0.86 0.01375,-0.10625 0.0275,-0.22 0.03875,-0.34875 -0.10625,0.35375 -0.23125,0.57625 -0.37625,0.765 -0.14875,0.185 -0.32375,0.3475 -0.5875,0.4725 -0.48125,0.23625 -1.05625,0.27625 -1.13875,0.50375 -0.03375,0.1175 0.1325,0.28125 0.44,0.33375 l 0.21375,0.0163 c 0.27875,-0.007 0.61625,-0.12375 0.85,-0.3675 0.22875,-0.24 0.3325,-0.45625 0.40125,-0.6575 -0.0038,0.0925 0.0025,0.1975 0.015,0.3225 m -2.93,-0.075 c 0.935,-0.0975 1.6025,-0.39125 2.5125,-1.33 0.61625,-0.6325 1.625,-1.63625 2.7075,-2.52375 1.02875,-0.84125 2.91625,-1.605 3.27625,-1.75875 0.2925,-0.12625 0.89,-0.24125 1.18,-0.3775 -0.89375,0.39375 -1.24,0.84375 -1.2625,1.47625 -0.03625,1.05125 1.3225,0.9825 1.37875,0.49 0.01625,-0.15375 -0.03375,-0.285 -0.1875,-0.3025 -0.13875,-0.0275 -0.2275,0.0325 -0.31375,0.0925 -0.0775,0.0512 -0.17,0.1225 -0.28625,0.0812 -0.295,-0.11 -0.32125,-0.3925 -0.23375,-0.6975 0.15625,-0.54375 1.005,-1.02125 1.6575,-1.29625 0.48125,-0.20125 0.93875,-0.32625 1.475,-0.41 -0.2675,0.0913 -0.52125,0.2125 -0.73875,0.385 -0.63,0.49875 -0.66,1.62 0.25125,1.835 0.31,0.0725 0.67875,-0.13 0.7525,-0.49125 0.0325,-0.165 -0.205,-0.5375 -0.25125,-0.38125 0.07,0.1725 0.0775,0.455 -0.29875,0.4475 -0.25125,-0.005 -0.51,-0.22625 -0.52125,-0.69625 -0.025,-0.665 0.6875,-1.00125 1.4025,-1.1825 0.33125,-0.04 0.6675,-0.075 0.99875,-0.0975 l 0.0025,-0.0812 0.02,-0.003 -0.02,10e-4 0,-0.0175 c -1.22125,-0.0425 -2.48375,0.065 -3.6925,0.3525 0,0 -2.91,0.42 -5.1225,2.18875 -1.12625,0.9 -1.99625,1.87875 -2.675,2.475 -0.60375,0.53125 -1.22875,1.0075 -2.11625,1.07625 -0.60875,0.0475 -2.17,-0.61 -1.685,-2.16875 0.1725,-0.55875 0.85375,-0.97625 1.5175,-0.95 0.33,-0.0112 0.7225,0.0513 0.975,0.155 0.27,0.0987 0.565,0.3775 0.495,0.715 -0.1625,0.19125 -0.5775,0.1275 -0.70375,0.07 -0.09,-0.065 -0.32625,-0.0163 -0.455,0.345 -0.08875,0.22625 -0.155,0.485 0.1825,0.57375 0.155,0.0337 0.25625,0.0325 0.4125,-0.01 0.16125,-0.0463 0.30125,-0.1225 0.40125,-0.21375 0.2025,-0.18875 0.285,-0.385 0.37125,-0.61 0.19,-0.31375 0.04375,-0.72875 -0.225,-0.9675 -0.135,-0.12875 -0.30625,-0.23 -0.4875,-0.3075 -0.175,-0.07 -0.325,-0.11625 -0.4925,-0.155 -0.33375,-0.0612 -0.64875,-0.10875 -1.0225,-0.0525 -0.3575,0.0588 -0.69375,0.21 -0.9825,0.4275 -0.37375,0.29 -0.74,0.71 -0.77,1.29875 -0.005,0.51125 0.1125,1.1275 0.36625,1.50875 0.4175,0.625 1.14375,1.195 2.2075,1.08625 m 2.09375,-4.53875 c 0.6775,0.355 1.7125,0.2575 2.5225,-0.17875 0.825,-0.44125 1.34875,-0.78 1.905,-1.0325 0.45875,-0.21125 2.2625,-0.9575 2.78375,-0.92 -1.11125,-0.0825 -2.3575,0.2475 -2.9175,0.51125 l -1.13875,0.40625 c -0.32,0.095 -0.64125,0.0863 -1.06,0.0338 -0.675,-0.0913 -1.16625,-0.37875 -1.41375,-0.25625 -0.12,0.0725 -0.0825,0.35875 0.19,0.61625 0.09125,0.09 0.2175,0.17125 0.3575,0.2325 -0.375,0.0437 -0.71875,0.035 -0.99875,-0.0362 -0.53,-0.11875 -0.84875,-0.3825 -0.96375,-0.305 -0.12125,0.0625 0.04875,0.595 0.73375,0.92875 m -1.87375,7.5 c -0.0475,0.0925 0.05375,0.26375 0.3075,0.34875 0.1625,0.0625 0.375,0.0675 0.57875,0.02 l 0.315,-0.125 c 0.55375,-0.3525 0.66875,-0.56125 1.08,-1.01125 -0.49,0.34875 -0.7375,0.40875 -1.26125,0.50625 -0.49625,0.09 -0.895,0.0825 -1.02,0.26125 m 0.11875,-1.2975 c -0.40625,-0.0575 -0.78125,-0.12 -1.05375,-0.19625 -0.27125,-0.07 -0.465,-0.16375 -0.55,-0.0913 -0.08125,0.065 0.0025,0.3325 0.325,0.55375 0.2725,0.19375 0.6875,0.29875 1.0975,0.28625 l 0.18,-0.0137 c 0.94,-0.14625 1.2425,-0.3125 2.11375,-0.6375 -0.89875,0.19875 -1.26,0.17875 -2.1125,0.0987 m 14.9825,-6.6 c 0.4825,0 0.88,-0.3925 0.88,-0.87625 0,-0.48625 -0.3975,-0.8775 -0.88,-0.8775 -0.48375,0 -0.87875,0.39125 -0.87875,0.8775 0,0.48375 0.395,0.87625 0.87875,0.87625 m 19.49375,4.57125 c -0.8125,-0.235 -1.7425,-0.19875 -1.77375,-0.11375 -0.025,0.0762 0.53625,0.85125 1.16125,1.34375 l -0.15375,0.0462 c -0.53125,0.13875 -0.75375,0.68875 -0.73375,0.74625 l 0.0075,0.009 c 0.08125,0.0575 0.515,-0.0388 0.775,0.0725 0.27,0.10625 1.0725,0.48 1.7525,0.21625 0.1975,-0.11625 0.405,-0.28875 0.51375,-0.52 l 0.20625,0.0238 0.11,-0.0863 c 0.3,0.13125 0.9775,0.33 1.67875,-0.17875 0.5925,-0.43 1.03125,-0.6675 1.415,-0.81875 l -0.27625,0.27 c -0.61375,0.67 -0.2675,1.97125 0.6575,2.14375 0.87125,0.16875 1.6825,-0.7775 1.18625,-1.5825 -0.20125,-0.3075 -0.6825,-0.4975 -1.02,-0.3 -0.37375,0.21875 -0.1425,0.93125 -0.01125,0.81125 0.14875,-0.13375 -0.1825,-0.37875 -0.15625,-0.5325 0.14375,-0.3475 0.59875,-0.30125 0.85375,-0.1275 0.72125,0.485 0.0275,1.48375 -0.5475,1.53125 -0.58125,0.0462 -1.37875,-1.02625 -0.93875,-1.72375 0.355,-0.56625 1.16875,-0.88 1.5175,-0.9275 0.3575,-0.045 0.89375,-0.0863 1.31625,-0.0525 0.61375,0.05 1.2275,0.19125 1.79875,0.425 0.8875,0.3625 1.58875,0.9375 1.9275,1.48 0.28125,0.45 0.25125,1.185 -0.29,1.38875 -1.04125,0.39125 -0.32375,1.04875 0.23875,0.4575 0.395,-0.40125 0.545,-1.1725 0.32,-1.67625 -0.7925,-1.7925 -2.76125,-2.185 -4.03125,-2.19875 -0.43375,-0.0812 -0.73875,-0.175 -1.0325,-0.2775 -0.33,-0.1175 -0.64625,-0.2475 -1.0825,-0.47 -0.4175,-0.215 -0.80625,-0.42 -1.06,-0.61125 l -0.22375,-0.18 c -0.11375,-0.10625 -0.19,-0.185 -0.265,-0.17125 -0.10625,0.006 -0.15875,0.345 0.10875,0.70875 0.255,0.3575 0.75125,0.64125 1.245,0.76625 0.51875,0.13 0.87125,0.1575 1.22875,0.19 0.22875,0.0175 0.4575,0.0338 0.72875,0.0488 l -0.01,0 c -0.58,-0.0388 -1.20875,0.0587 -1.735,0.325 -0.535,0.14125 -1.07375,0.365 -1.94375,0.995 -0.6575,0.48 -1.27875,0.28875 -1.545,0.16625 l -0.01125,-0.11125 -0.15,-0.1525 c 0.135,-0.23625 0.145,-0.535 0.10875,-0.7775 -0.215,-0.695 -1.0125,-1.09 -1.26125,-1.23375 -0.125,-0.0662 -0.2375,-0.2 -0.33125,-0.32125 -0.09875,-0.13 -0.175,-0.2425 -0.2225,-0.23625 -0.0575,0.0213 -0.345,0.5375 -0.12375,1.03875 l 0.07375,0.1775 m -1.69875,1.07625 c -0.0475,-0.13125 -0.18875,-0.20125 -0.32,-0.15875 -0.12875,0.0462 -0.2025,0.18875 -0.1575,0.31875 l 0.09,0.12375 0.23,0.035 c 0.13,-0.045 0.20125,-0.1875 0.1575,-0.31875 m 5.5425,0.6 c -0.26375,0.0925 -0.445,0.255 -0.6025,0.43 l -0.185,0.305 -0.1325,0.26 c -0.25375,0.34 -0.5825,0.66875 -0.9175,0.9875 l 0.0325,0.0475 c 0.42875,-0.1875 0.84,-0.4075 1.2175,-0.73 0.09625,-0.0812 0.18875,-0.17 0.28125,-0.2825 l 0.17875,-0.2825 c 0.0875,-0.20875 0.16,-0.4275 0.17125,-0.70125 l -0.04375,-0.0337 z m 4.405,-0.57625 -0.2025,-0.075 -0.31625,-0.0937 c -0.28625,-0.0963 -0.42125,-0.1475 -0.67875,-0.36375 0.2025,0.27375 0.24375,0.4 0.51625,0.64875 0.14,0.11875 0.35625,0.18 0.52625,0.12 l 0.14,-0.1 0.015,-0.13625 m -1,1.30125 0.09,0.0575 c 0.17625,0.0987 0.32375,0.10125 0.37125,0.0312 0.09125,-0.1575 -0.17875,-0.4825 -0.445,-0.79875 -0.14125,-0.1675 -0.22125,-0.305 -0.28875,-0.45625 -0.0625,-0.15 -0.1175,-0.315 -0.10875,-0.56875 -0.06,0.24625 -0.0725,0.42625 -0.0775,0.605 -0.00125,0.18125 0.0075,0.3675 0.09375,0.62875 0.07375,0.2125 0.21625,0.39375 0.365,0.50125 m -8.4925,-3.31875 0.22875,0.035 c 0.1325,-0.045 0.205,-0.1875 0.16,-0.32 -0.04625,-0.13 -0.18875,-0.2025 -0.32375,-0.15625 -0.1275,0.0437 -0.19875,0.1875 -0.15375,0.31875 l 0.08875,0.1225 m 5.015,1.08625 c 0.14,0.105 0.34,0.17 0.54125,0.165 0.4725,-0.0225 0.62875,-0.1 1.0725,-0.18375 -0.44375,-0.02 -0.6125,-0.0963 -0.9925,-0.24625 -0.37125,-0.13875 -0.63625,-0.22125 -0.78375,-0.1375 -0.07,0.0525 -0.05125,0.20625 0.09375,0.34375 l 0.06875,0.0587 m -53.7925,3.37375 c -0.5425,-0.205 -0.57375,-0.94125 -0.29125,-1.38875 0.34125,-0.545 1.04125,-1.11875 1.92625,-1.48125 0.57125,-0.23375 1.18625,-0.375 1.80375,-0.42625 0.42,-0.0337 0.95875,0.008 1.31125,0.055 0.355,0.045 1.16625,0.36 1.5225,0.92625 0.43625,0.69625 -0.36,1.77 -0.94,1.7225 -0.57625,-0.0475 -1.2675,-1.04625 -0.55,-1.53 0.2575,-0.17375 0.71375,-0.21875 0.85875,0.1275 0.02625,0.1525 -0.30875,0.39875 -0.1575,0.5325 0.1325,0.12125 0.3625,-0.59375 -0.01125,-0.81125 -0.34,-0.1975 -0.82,-0.007 -1.02125,0.3 -0.49625,0.805 0.31375,1.75 1.1875,1.5825 0.92375,-0.17375 1.265,-1.475 0.66,-2.14375 l -0.28,-0.26875 c 0.38625,0.15 0.8175,0.3875 1.41375,0.8175 0.7025,0.5075 1.38125,0.31 1.67875,0.18 l 0.11125,0.085 0.20625,-0.0225 c 0.1075,0.22875 0.315,0.40375 0.51375,0.51875 0.67625,0.26375 1.48375,-0.11125 1.75375,-0.21625 0.2575,-0.11125 0.6925,-0.015 0.77125,-0.0712 l 0.01,-0.01 c 0.02,-0.0575 -0.20375,-0.60875 -0.7325,-0.745 l -0.15375,-0.0462 c 0.6225,-0.49375 1.18375,-1.26875 1.16,-1.34375 -0.03375,-0.0863 -0.96125,-0.12125 -1.77375,0.1125 l 0.07375,-0.17875 c 0.2225,-0.50125 -0.065,-1.01625 -0.1225,-1.0375 -0.04875,-0.006 -0.125,0.10625 -0.22375,0.23625 -0.09375,0.12 -0.2075,0.255 -0.33125,0.32125 -0.2525,0.14375 -1.04625,0.53875 -1.26375,1.2325 -0.03625,0.24375 -0.02625,0.5425 0.11125,0.7775 l -0.15375,0.1525 -0.0087,0.1125 c -0.26625,0.1225 -0.88875,0.31375 -1.54875,-0.16625 -0.865,-0.63125 -1.40125,-0.85375 -1.93625,-0.99625 -0.53,-0.26625 -1.15875,-0.3625 -1.74,-0.32375 l -0.0075,-10e-4 c 0.27125,-0.015 0.5,-0.0312 0.72875,-0.0487 0.35625,-0.0312 0.71125,-0.06 1.22625,-0.18875 0.49875,-0.12375 0.98875,-0.40875 1.24375,-0.7675 0.27,-0.3625 0.215,-0.70125 0.11125,-0.7075 -0.07625,-0.0137 -0.15375,0.065 -0.27125,0.17125 l -0.22,0.18 c -0.24875,0.19125 -0.63625,0.39625 -1.0575,0.61125 -0.4325,0.2225 -0.755,0.35125 -1.08125,0.47 -0.29375,0.1025 -0.6,0.19625 -1.03125,0.2775 -1.27375,0.0137 -3.23875,0.40625 -4.035,2.19875 -0.22125,0.5025 -0.0725,1.275 0.32375,1.67625 0.56375,0.5925 1.28125,-0.0662 0.23625,-0.45625 m 13.06375,-2.18625 0.0875,-0.1225 c 0.04375,-0.13 -0.0275,-0.27375 -0.15625,-0.3175 -0.1325,-0.0438 -0.275,0.025 -0.32,0.15625 -0.04375,0.1325 0.02625,0.275 0.1575,0.31875 l 0.23125,-0.035 m -5.0125,1.31125 -0.135,-0.25875 -0.1825,-0.30375 c -0.15625,-0.17625 -0.3375,-0.33875 -0.60125,-0.43125 l -0.04375,0.0338 c 0.01,0.27375 0.0825,0.4925 0.16875,0.7 l 0.18,0.28375 0.2825,0.28125 c 0.375,0.32375 0.78875,0.54375 1.215,0.73 l 0.0325,-0.0475 c -0.3325,-0.3175 -0.6625,-0.64625 -0.91625,-0.9875 m -5.16625,-1.335 c 0.1675,0.0612 0.38375,0 0.52375,-0.11875 0.27,-0.25 0.31375,-0.375 0.51875,-0.65 -0.26,0.21875 -0.3925,0.26875 -0.68,0.365 l -0.31625,0.0937 -0.20625,0.0763 0.01625,0.13375 0.14375,0.1 m 1.3,-0.0638 c -0.005,-0.18 -0.0125,-0.35875 -0.075,-0.605 0.0087,0.25375 -0.045,0.41875 -0.1075,0.56875 -0.0675,0.15125 -0.15125,0.2875 -0.29125,0.45625 -0.26375,0.31625 -0.53375,0.64125 -0.445,0.7975 0.04875,0.0713 0.1975,0.0675 0.37125,-0.03 l 0.09,-0.0575 c 0.1475,-0.10875 0.295,-0.29 0.365,-0.50125 0.0875,-0.2625 0.095,-0.44875 0.0925,-0.62875 m 7.8075,-2.15375 0.225,-0.0362 0.08875,-0.12125 c 0.04875,-0.1325 -0.025,-0.27625 -0.155,-0.32 -0.13125,-0.0437 -0.275,0.0275 -0.32125,0.1575 -0.04125,0.13125 0.03,0.27375 0.1625,0.32 m -6.395,1.03375 c 0.44,0.0813 0.59625,0.15875 1.06625,0.1825 0.19625,0.005 0.4,-0.0612 0.54125,-0.16625 l 0.06625,-0.0575 c 0.14625,-0.1375 0.16375,-0.29125 0.09625,-0.3425 -0.1475,-0.085 -0.41375,-0.003 -0.78125,0.13625 -0.37875,0.14875 -0.54625,0.225 -0.98875,0.2475 m -7.55,14.20125 c -0.02,-0.6725 -0.4725,-1.19125 -1.16625,-1.24375 -0.6725,-0.0525 -1.4325,0.64 -0.92125,1.21 0.31125,0.34375 0.76875,-0.305 0.285,-0.43875 -0.27,-0.0487 -0.14625,-0.3125 0.0037,-0.415 0.17,-0.1175 0.4,-0.135 0.59875,-0.10625 0.91375,0.12375 1.0675,1.3525 0.3975,1.88 -0.7975,0.63375 -1.85625,0.13375 -2.4675,-0.4875 -0.73,-0.74125 -2.1075,-3.30625 -3.2675,-3.40875 1.16,-0.105 2.53875,-2.66875 3.2675,-3.41 0.61125,-0.62375 1.66875,-1.12125 2.4675,-0.4875 0.6675,0.52875 0.5175,1.755 -0.3975,1.88 -0.19875,0.0287 -0.42875,0.0113 -0.59875,-0.10625 -0.15,-0.1025 -0.27375,-0.3675 -0.0037,-0.41625 0.48375,-0.13375 0.02625,-0.78125 -0.285,-0.4375 -0.51125,0.57 0.24875,1.26125 0.92125,1.21 0.69375,-0.0538 1.14625,-0.57 1.16625,-1.245 0.03375,-1.00375 -0.74625,-1.69875 -1.78625,-1.69875 -1.04375,0 -2.01,0.95 -3.08,2.60375 -0.35875,0.5575 -0.8425,1.52125 -1.6725,2.1075 0.83,0.58375 1.31375,1.5475 1.6725,2.10625 1.07,1.6525 2.03625,2.60375 3.08,2.60375 1.04,0 1.82,-0.69875 1.78625,-1.7 m 0.05125,-2.0925 c -0.05125,-0.0412 -0.0775,-0.065 0.04875,0.0362 l -0.04875,-0.0362 0.08625,0.0713 -0.0175,-0.0163 0.0175,0.0163 c 0.3825,0.33375 0.33,0.41 0.33,0.8875 0,0.21625 0.26875,0.1425 0.3775,0.08 0.31375,-0.17625 0.4175,-0.575 0.28625,-0.90125 -0.3325,-0.81875 -1.53625,-1 -2.40875,-1.02 0.8725,-0.0213 2.07625,-0.205 2.40875,-1.02375 0.13125,-0.32625 0.0275,-0.725 -0.28625,-0.90125 l -0.225,-0.0637 -0.1525,0.14125 c 0,0.475 0.0525,0.55375 -0.33,0.88875 l -0.02,0.0187 0.02,-0.0187 -0.0875,0.0738 0.055,-0.0438 c -0.13125,0.1075 -0.105,0.0838 -0.055,0.0438 -0.49875,0.4025 -1.08625,0.78875 -1.715,0.885 0.62875,0.0962 1.21875,0.47875 1.71625,0.8825 m 2.11875,-1.6825 c 0.03875,-0.115 0.08,-0.69 -0.14875,-0.69 l -0.04,0.005 c -0.18125,0.0387 -0.3975,0.71625 -0.51875,0.865 l -0.0012,10e-4 0.0012,-10e-4 c -0.285,0.35 -0.70625,0.54375 -1.14375,0.6125 l -0.03625,10e-4 0.015,0.004 -0.015,0.003 0.03625,0.002 c 0.435,0.07 0.85625,0.26125 1.14,0.60875 l 0.0025,0.003 -0.0025,-0.003 0.0062,0.006 -0.0025,-0.004 0.0025,0.004 c 0.12125,0.15625 0.335,0.82125 0.51625,0.8625 0.27375,0.0687 0.23125,-0.5625 0.18875,-0.68375 -0.2,-0.60375 -0.83,-0.7675 -1.42125,-0.79875 0.59125,-0.03 1.22125,-0.19625 1.42125,-0.7975 m -7.03625,0.9625 -0.05,0.01 0.075,0.68625 c 0.055,0.2775 0.1875,0.4975 0.36,0.7175 0.4275,0.545 1.885,0.67875 1.95625,0.56625 0.0725,-0.11125 -0.95,-0.55125 -1.27625,-0.88 -0.31,-0.305 -0.78375,-1.1 -1.065,-1.1 m 76.29625,-0.1975 c -0.83,-0.58625 -1.31,-1.55 -1.67125,-2.1075 -1.06875,-1.65375 -2.03625,-2.60375 -3.0825,-2.60375 -1.04,0 -1.815,0.695 -1.78375,1.69875 0.0225,0.675 0.47,1.19 1.16625,1.245 0.67,0.0512 1.4325,-0.64 0.92,-1.21 -0.31125,-0.34375 -0.765,0.30375 -0.285,0.4375 0.275,0.0488 0.15125,0.31375 -0.0025,0.41625 -0.17,0.1175 -0.4025,0.135 -0.6,0.10625 -0.9075,-0.125 -1.06375,-1.3525 -0.3975,-1.88125 0.7975,-0.6325 1.86,-0.135 2.47,0.48875 0.73,0.74125 2.10875,3.305 3.26625,3.41 -1.1575,0.1025 -2.53625,2.6675 -3.26625,3.40875 -0.61,0.62125 -1.6725,1.12125 -2.47,0.4875 -0.66625,-0.5275 -0.51,-1.75625 0.3975,-1.88 0.1975,-0.0287 0.43,-0.0113 0.6,0.10625 0.15375,0.1025 0.2775,0.36625 0.0025,0.415 -0.48,0.13375 -0.02625,0.7825 0.285,0.43875 0.5125,-0.57 -0.25,-1.2625 -0.92,-1.21 -0.69625,0.0525 -1.14375,0.57125 -1.16625,1.24375 -0.03125,1.00125 0.74375,1.7 1.78375,1.7 1.04625,0 2.01375,-0.95125 3.0825,-2.60375 0.36125,-0.55875 0.84125,-1.5225 1.67125,-2.10625 m -1.62125,-0.0825 -0.07625,-0.68625 c -0.05375,-0.2775 -0.18375,-0.4975 -0.355,-0.7175 -0.3375,-0.43 -1.3125,-0.60375 -1.75,-0.60375 -0.115,0 -0.195,0.0137 -0.21,0.0375 -0.06625,0.1125 0.95,0.55 1.2775,0.8775 0.32875,0.3275 0.8425,1.20125 1.11375,1.0925 m -4.965,-0.7675 c 0.04875,0.04 0.075,0.0637 -0.0525,-0.0438 l 0.0525,0.0438 -0.08625,-0.0738 0.02,0.0187 -0.02,-0.0187 c -0.38875,-0.335 -0.3325,-0.41375 -0.3325,-0.88875 l -0.15125,-0.14125 -0.22625,0.0637 c -0.31375,0.17625 -0.415,0.575 -0.28625,0.90125 0.33375,0.81875 1.53625,1.0025 2.4075,1.02375 -0.87125,0.02 -2.07375,0.20125 -2.4075,1.02 -0.12875,0.32625 -0.0275,0.725 0.28625,0.90125 0.10875,0.0625 0.3775,0.13625 0.3775,-0.08 0,-0.4775 -0.05625,-0.55375 0.3325,-0.8875 l 0.01625,-0.0163 -0.01625,0.0163 0.08625,-0.0713 -0.05,0.0362 c 0.125,-0.10125 0.0975,-0.0775 0.05,-0.0362 0.4925,-0.40375 1.08375,-0.78625 1.71,-0.8825 -0.62625,-0.0963 -1.21625,-0.4825 -1.71,-0.885 m -0.26875,0.8775 c -0.435,-0.0688 -0.8575,-0.2625 -1.145,-0.6125 l 0,10e-4 0,-10e-4 c -0.1225,-0.14875 -0.33375,-0.82625 -0.5175,-0.865 l -0.04,-0.005 c -0.2275,0 -0.18625,0.575 -0.1475,0.69 0.2,0.60125 0.82625,0.7675 1.42,0.7975 -0.59375,0.0312 -1.22,0.195 -1.42,0.79875 -0.03875,0.12125 -0.08375,0.7525 0.1875,0.68375 0.18125,-0.0413 0.39375,-0.70625 0.51625,-0.8625 l 0.00125,-0.004 0,0.004 0.00375,-0.006 -0.00375,0.003 0.00375,-0.003 c 0.28875,-0.3475 0.7075,-0.53875 1.14125,-0.60875 l 0.03625,-0.002 -0.01625,-0.003 0.01625,-0.004 -0.03625,-10e-4 m 2.17,-0.10875 0,0.2875 c 0.09,0.10875 0.4525,0.4025 0.6975,0.50625 0.24625,0.11375 0.49875,0.15875 0.7425,0.15875 0.245,-0.004 0.4925,-0.045 0.745,-0.16125 0.22125,-0.0962 0.44625,-0.2375 0.6675,-0.48375 0.145,-0.0788 0.2325,-0.0738 0.3875,-0.085 0.30375,-0.0213 0.605,-0.0412 0.9075,-0.0738 -0.3025,-0.0375 -0.60375,-0.0637 -0.9075,-0.0837 -0.155,-0.0113 -0.2425,-0.005 -0.3875,-0.0863 -0.22125,-0.245 -0.44625,-0.38625 -0.6675,-0.4825 -0.2525,-0.115 -0.5,-0.1575 -0.745,-0.16125 -0.24375,0.001 -0.49625,0.0437 -0.7425,0.1575 -0.245,0.10625 -0.6075,0.39625 -0.6975,0.5075 m 1.95,1.37875 c -0.3275,0.32875 -1.34375,0.76875 -1.2775,0.88 0.07375,0.1125 1.53,-0.0213 1.96,-0.56625 0.17125,-0.22 0.30125,-0.44 0.355,-0.7175 l 0.07625,-0.68625 -0.05,-0.01 c -0.28,0 -0.7525,0.795 -1.06375,1.1 m -55.15125,9.0125 0.15375,-0.0475 c 0.52875,-0.13625 0.7525,-0.6875 0.7325,-0.74625 l -0.01,-0.007 c -0.07875,-0.06 -0.51375,0.0375 -0.77125,-0.0725 -0.27,-0.1075 -1.0775,-0.48125 -1.75375,-0.2175 -0.19875,0.11625 -0.40625,0.29125 -0.51375,0.52 l -0.20625,-0.0238 -0.11125,0.0863 c -0.2975,-0.13 -0.97625,-0.33 -1.67875,0.18 -0.59625,0.43125 -1.0275,0.6675 -1.41375,0.81875 l 0.28,-0.27 c 0.605,-0.66875 0.26375,-1.97 -0.66,-2.145 -0.87375,-0.1675 -1.68375,0.7775 -1.1875,1.58375 0.20125,0.30625 0.68125,0.4975 1.02125,0.3 0.37375,-0.21875 0.14375,-0.93125 0.01125,-0.8125 -0.15125,0.13625 0.18375,0.38 0.1575,0.5325 -0.145,0.3475 -0.60125,0.3025 -0.85875,0.12875 -0.7175,-0.48375 -0.02625,-1.48375 0.55,-1.53 0.58,-0.0462 1.37625,1.02625 0.94,1.72375 -0.35625,0.565 -1.1675,0.88 -1.5225,0.92625 -0.3525,0.045 -0.89125,0.0875 -1.31125,0.0525 -0.6175,-0.05 -1.2325,-0.19125 -1.80375,-0.425 -0.885,-0.3625 -1.585,-0.93625 -1.92625,-1.48125 -0.2825,-0.44875 -0.25125,-1.185 0.29125,-1.38625 1.045,-0.3925 0.3275,-1.04875 -0.23625,-0.4575 -0.39625,0.4 -0.545,1.17125 -0.32375,1.675 0.79625,1.7925 2.76125,2.185 4.035,2.19875 0.43125,0.0812 0.7375,0.175 1.03125,0.2775 0.32625,0.1175 0.64875,0.24625 1.08125,0.47 0.42125,0.21625 0.80875,0.42125 1.0575,0.6125 l 0.22,0.18 c 0.1175,0.105 0.195,0.18375 0.27125,0.17 0.10375,-0.006 0.15875,-0.345 -0.11125,-0.70875 -0.255,-0.35875 -0.745,-0.64125 -1.24375,-0.76625 -0.515,-0.12875 -0.87,-0.15625 -1.22625,-0.19 -0.22875,-0.015 -0.4575,-0.0337 -0.72875,-0.0475 l 0.0075,0 c 0.58125,0.0388 1.21,-0.06 1.74,-0.325 0.535,-0.14125 1.07125,-0.36625 1.93625,-0.9975 0.66,-0.47625 1.2825,-0.2875 1.54875,-0.16625 l 0.0087,0.1125 0.15375,0.1525 c -0.1375,0.2375 -0.1475,0.535 -0.11125,0.77875 0.2175,0.69375 1.01125,1.0875 1.26375,1.2325 0.12375,0.065 0.2375,0.2 0.33125,0.32 0.09875,0.13125 0.175,0.2425 0.22375,0.2375 0.0575,-0.02 0.345,-0.53875 0.1225,-1.0375 l -0.07375,-0.1775 c 0.8125,0.2325 1.74,0.1975 1.77375,0.11125 0.02375,-0.0762 -0.5375,-0.84875 -1.16,-1.3425 m 1.75125,0.01 -0.09,-0.12125 -0.23,-0.0337 c -0.1325,0.0425 -0.20375,0.185 -0.16,0.3175 0.045,0.12875 0.18625,0.2 0.32,0.15625 0.13125,-0.0438 0.20375,-0.18625 0.16,-0.31875 m -5.6225,-1.755 c -0.09625,0.08 -0.19,0.16875 -0.2825,0.2825 l -0.18,0.2825 c -0.08625,0.2075 -0.15875,0.42625 -0.16875,0.7 l 0.04375,0.0338 c 0.26375,-0.0925 0.445,-0.25375 0.60125,-0.43375 l 0.1825,-0.3 0.135,-0.26 c 0.25375,-0.34 0.58375,-0.67125 0.91625,-0.99 l -0.0325,-0.0462 c -0.42625,0.18875 -0.84,0.4075 -1.215,0.73125 m -4.995,1.875 0.20625,0.0738 0.31625,0.0962 c 0.2875,0.0963 0.42,0.145 0.68,0.36375 -0.205,-0.27375 -0.24875,-0.40125 -0.51875,-0.65125 -0.14,-0.115 -0.35625,-0.17875 -0.52375,-0.11625 l -0.14375,0.0962 -0.01625,0.1375 m 1.385,0.43375 c 0.0625,-0.245 0.07,-0.425 0.075,-0.605 0.0025,-0.18 -0.005,-0.36625 -0.0925,-0.6275 -0.07,-0.215 -0.2175,-0.39625 -0.365,-0.50375 l -0.09,-0.0562 c -0.17375,-0.1 -0.3225,-0.1025 -0.37125,-0.0312 -0.08875,0.15625 0.18125,0.48375 0.445,0.79875 0.14,0.16875 0.22375,0.30625 0.29125,0.45625 0.0625,0.15 0.11625,0.315 0.1075,0.56875 m 8.1075,1.585 -0.225,-0.0362 c -0.1325,0.045 -0.20375,0.1875 -0.1625,0.32 0.04625,0.13125 0.19,0.2025 0.32125,0.15625 0.13,-0.0425 0.20375,-0.18625 0.155,-0.31875 l -0.08875,-0.12125 m -5.0125,-1.0875 c -0.14125,-0.10375 -0.345,-0.1675 -0.54125,-0.16375 -0.47,0.0225 -0.62625,0.1 -1.06625,0.18125 0.4425,0.0225 0.61,0.0987 0.98875,0.24625 0.3675,0.14 0.63375,0.2225 0.78125,0.1375 0.0675,-0.05 0.05,-0.20625 -0.09625,-0.34375 l -0.06625,-0.0575 m 53.78375,-3.37375 c 0.5425,0.20125 0.57125,0.9375 0.29125,1.38625 -0.33875,0.545 -1.04125,1.11875 -1.9275,1.48125 -0.5725,0.23375 -1.1875,0.375 -1.8,0.425 -0.4225,0.035 -0.96125,-0.008 -1.315,-0.0525 -0.35,-0.0462 -1.16625,-0.36125 -1.51875,-0.92625 -0.44125,-0.6975 0.35625,-1.77 0.93625,-1.72375 0.5775,0.0462 1.2725,1.04625 0.55125,1.53 -0.2575,0.17375 -0.71,0.21875 -0.855,-0.12875 -0.0275,-0.1525 0.30375,-0.39625 0.15625,-0.5325 -0.13375,-0.11875 -0.36375,0.59375 0.01,0.8125 0.33875,0.1975 0.81875,0.006 1.02,-0.3 0.49875,-0.80625 -0.3175,-1.75125 -1.1825,-1.58375 -0.9275,0.175 -1.27625,1.47625 -0.66125,2.145 l 0.2775,0.27 c -0.385,-0.15125 -0.82375,-0.3875 -1.41625,-0.81875 -0.70125,-0.51 -1.37875,-0.31 -1.6775,-0.18 l -0.11125,-0.0863 -0.20625,0.0238 c -0.10625,-0.22875 -0.315,-0.40375 -0.51375,-0.52 -0.68,-0.26375 -1.48375,0.11 -1.7525,0.2175 -0.26,0.11 -0.69375,0.0125 -0.7725,0.0725 l -0.0087,0.007 c -0.02125,0.0588 0.20125,0.61 0.73375,0.74625 l 0.15,0.0475 c -0.62,0.49375 -1.18375,1.26625 -1.15625,1.3425 0.03,0.0863 0.96,0.12125 1.7725,-0.11125 l -0.07375,0.1775 c -0.22375,0.49875 0.06625,1.0175 0.12125,1.0375 0.04875,0.005 0.12625,-0.10625 0.225,-0.2375 0.09125,-0.12 0.20625,-0.255 0.33,-0.32 0.25,-0.145 1.04625,-0.53875 1.26375,-1.2325 0.035,-0.24375 0.02625,-0.54125 -0.11125,-0.77875 l 0.15125,-0.1525 0.0088,-0.1125 c 0.26875,-0.12125 0.89125,-0.31 1.54875,0.16625 0.86625,0.63125 1.405,0.85625 1.93875,0.9975 0.5325,0.265 1.16,0.36375 1.73625,0.325 l 0.01375,0 c -0.27125,0.0138 -0.5025,0.0325 -0.73,0.0475 -0.36,0.0338 -0.71125,0.0613 -1.225,0.19 -0.49875,0.125 -0.99125,0.4075 -1.24875,0.76625 -0.26625,0.36375 -0.21375,0.7025 -0.11,0.70875 0.0725,0.0137 0.15125,-0.065 0.2675,-0.17 l 0.2225,-0.18 c 0.2525,-0.19125 0.64,-0.39625 1.0625,-0.6125 0.43125,-0.22375 0.75,-0.3525 1.08,-0.47 0.29375,-0.1025 0.59875,-0.19625 1.03125,-0.2775 1.2675,-0.0137 3.24125,-0.40625 4.0325,-2.19875 0.22625,-0.50375 0.07625,-1.275 -0.32125,-1.675 -0.56375,-0.59125 -1.28125,0.065 -0.2375,0.4575 m -13.0225,2.1675 -0.23375,0.0337 -0.08625,0.12125 c -0.04375,0.1325 0.02875,0.275 0.1575,0.31875 0.13375,0.0437 0.27375,-0.0275 0.32,-0.15625 0.045,-0.1325 -0.02625,-0.275 -0.1575,-0.3175 m 5.585,-1.3175 c -0.09375,-0.11375 -0.18875,-0.2025 -0.28375,-0.2825 -0.3775,-0.32375 -0.78625,-0.5425 -1.2175,-0.73125 l -0.03,0.0462 c 0.33375,0.31875 0.6625,0.65 0.91375,0.99 l 0.135,0.26 0.18375,0.3 c 0.1575,0.18 0.34,0.34125 0.6025,0.43375 l 0.04375,-0.0338 c -0.0087,-0.27375 -0.08375,-0.4925 -0.17125,-0.7 l -0.17625,-0.2825 m 4.5075,1.66625 0.2025,-0.0738 -0.01625,-0.1375 -0.14,-0.0962 c -0.16875,-0.0625 -0.385,10e-4 -0.525,0.11625 -0.27125,0.25 -0.31625,0.3775 -0.51625,0.65125 0.255,-0.21875 0.3925,-0.2675 0.67625,-0.36375 l 0.31875,-0.0962 z m -1.2575,-0.245 c 0.0075,0.18 0.0175,0.36 0.0775,0.605 -0.0075,-0.25375 0.04875,-0.41875 0.11125,-0.56875 0.0625,-0.15 0.1475,-0.2875 0.2875,-0.45625 0.2625,-0.315 0.535,-0.6425 0.4475,-0.79875 -0.04875,-0.0712 -0.19625,-0.0688 -0.37625,0.0312 l -0.08875,0.0562 c -0.1475,0.1075 -0.29,0.28875 -0.36375,0.50375 -0.0875,0.26125 -0.095,0.4475 -0.095,0.6275 m -7.80375,2.15375 -0.23,0.0362 -0.0875,0.12125 c -0.04625,0.1325 0.025,0.27625 0.155,0.31875 0.1325,0.0462 0.2775,-0.025 0.3225,-0.15625 0.04375,-0.1325 -0.02625,-0.275 -0.16,-0.32 m 6.3975,-1.03375 c -0.44,-0.0813 -0.595,-0.15875 -1.0725,-0.18125 -0.19875,-0.004 -0.39875,0.06 -0.5425,0.16375 l -0.065,0.0575 c -0.145,0.1375 -0.16375,0.29375 -0.0925,0.34375 0.1475,0.085 0.41,0.003 0.78125,-0.1375 0.38125,-0.1475 0.5475,-0.22375 0.99125,-0.24625 m -14.17875,-0.0488 c 0.16,-0.1875 0.34875,-0.3525 0.62875,-0.47375 0.505,-0.23375 1.10875,-0.25625 1.2025,-0.4925 0.0375,-0.12125 -0.13,-0.29625 -0.45,-0.36125 l -0.22125,-0.0237 c -0.29125,0 -0.64875,0.10875 -0.89875,0.3575 -0.245,0.24375 -0.3625,0.4675 -0.43875,0.675 0.005,-0.0975 0.0038,-0.205 -0.0075,-0.33625 -0.035,-0.26625 -0.24125,-0.52 -0.4475,-0.59875 -0.20375,-0.085 -0.35875,-0.025 -0.38875,0.0675 -0.03375,0.0987 0.03625,0.21 0.10375,0.325 0.0675,0.1125 0.14625,0.225 0.2525,0.37875 0.19375,0.31 0.28875,0.50375 0.29875,0.90375 -0.01625,0.1125 -0.035,0.23125 -0.05125,0.36625 0.12375,-0.36875 0.2575,-0.595 0.4175,-0.7875 m -6.88,2 c -0.01,0.11375 -0.005,0.0738 -0.0025,0.02 -0.0087,0.30125 0.23125,0.46375 0.47125,0.46375 0.21875,0 0.43625,-0.135 0.45625,-0.41625 0.0425,-0.58875 -0.86,-0.6625 -0.92375,-0.0888 0.0038,-0.055 0.0063,-0.0925 -0.0012,0.0213 m 10.8775,-2.4225 c -0.88375,-0.10875 -1.74625,0.095 -2.5825,0.46875 -1.00375,0.44625 -2.05375,1.66625 -2.705,2.525 -0.665,0.87875 -1.24,1.5375 -2.10875,2.2125 -0.225,0.17375 -0.58625,0.42125 -0.85,0.52875 -0.20625,0.085 -0.41625,0.15875 -0.625,0.23875 1.75625,-0.96875 2.8175,-2.59375 2.8175,-2.59375 0.5725,-0.76625 0.87625,-1.485 0.78875,-2.1625 -0.13625,-1.055 -0.77125,-1.65 -1.7825,-1.48625 -0.68,0.1075 -1.1425,0.63125 -1.1075,1.34125 0.03375,0.6875 0.8325,1.36625 1.34375,0.7725 0.30875,-0.35625 -0.4075,-0.7375 -0.48125,-0.22875 -0.01375,0.28 -0.29875,0.19 -0.42125,0.05 -0.14125,-0.15625 -0.185,-0.3875 -0.18125,-0.5925 0.0063,-0.94 1.2275,-1.2525 1.84875,-0.6475 0.74375,0.725 0.375,1.8625 -0.17125,2.56125 0,0 -0.6875,0.86875 -0.91625,1.11125 -0.2275,0.23875 -0.45,0.46375 -0.6725,0.67125 0.04125,-0.12 0.065,-0.24375 0.075,-0.365 0.07,-1.0525 -1.28625,-1.0275 -1.36375,-0.5375 -0.01875,0.15375 0.0275,0.2875 0.18,0.31125 0.13875,0.03 0.2275,-0.0263 0.3175,-0.0825 0.07875,-0.0488 0.16125,-0.10125 0.28125,-0.09 0.2825,0.15875 0.31625,0.42 0.21875,0.72375 -0.17375,0.535 -1.13375,1.22875 -1.795,1.48 -0.48625,0.185 -0.95,0.29625 -1.485,0.3625 0.27,-0.0838 0.52375,-0.1975 0.74875,-0.36125 0.6475,-0.47625 0.71375,-1.595 -0.1875,-1.84 -0.30875,-0.0838 -0.68375,0.1075 -0.77,0.4675 -0.0375,0.16125 0.185,0.54125 0.23625,0.38625 -0.05875,-0.175 -0.05875,-0.4575 0.31625,-0.4375 0.24625,0.0137 0.49875,0.2425 0.4975,0.7125 0,0.665 -0.72125,0.97875 -1.44125,1.135 -0.3375,0.0325 -0.67375,0.055 -1.00625,0.0675 l -0.0063,0.0813 -0.0175,0 0.0175,0 0,0.0175 c 1.225,0.0813 2.46125,0.0288 3.67625,-0.21875 0.60625,-0.13125 1.2125,-0.31125 1.78375,-0.60375 0.28375,-0.14625 0.5625,-0.315 0.81125,-0.53125 0.2625,-0.21125 0.71,-0.57875 1.0475,-0.94625 0.8,-0.87 1.49875,-2.02625 2.4125,-2.73125 0.9125,-0.70375 1.68125,-1.0975 2.7475,-1.0775 -0.1025,-0.002 -0.14375,-0.004 0.1125,10e-4 l -0.0575,0 0.15,0.003 -0.01875,-10e-4 0.01875,10e-4 c 0.65875,0.0337 1.30125,0.2 1.74625,0.60625 0.225,0.2025 0.39625,0.4625 0.49375,0.75625 0.04875,0.14625 0.0825,0.30125 0.09375,0.4525 0.0075,0.13 -0.0125,0.25125 -0.07,0.38625 -0.245,0.52875 -0.88625,0.945 -1.54875,0.89875 -0.33,0 -0.71875,-0.075 -0.97125,-0.18875 -0.26125,-0.10625 -0.54625,-0.39125 -0.465,-0.7275 0.16625,-0.18625 0.57625,-0.11 0.7025,-0.0475 0.08875,0.0675 0.32625,0.0263 0.465,-0.32875 0.0975,-0.22375 0.17125,-0.47875 -0.1625,-0.57875 -0.15625,-0.0412 -0.25625,-0.0425 -0.4125,-0.004 -0.16625,0.0388 -0.30375,0.1125 -0.4075,0.2 -0.20875,0.18125 -0.2975,0.37375 -0.39125,0.59625 -0.205,0.30875 -0.0675,0.725 0.19375,0.97375 0.13,0.13375 0.295,0.24 0.47625,0.325 0.17375,0.0775 0.32,0.12625 0.48625,0.17 0.33125,0.0737 0.64625,0.13 1.02,0.0862 0.3625,-0.0475 0.70125,-0.1875 0.99625,-0.39625 0.38125,-0.27875 0.74,-0.69375 0.79,-1.28 0.02375,-0.51 -0.1175,-0.86375 -0.36875,-1.2925 -0.51875,-0.87625 -1.49,-1.20125 -2.36,-1.30375 m -2.07625,3.88 c -0.705,-0.29875 -1.75,-0.11125 -2.49875,0.38625 -0.78625,0.50625 -1.1775,0.945 -1.65375,1.3275 -0.2225,0.18875 -1.69875,0.955 -2.22125,1.0325 1.0025,-0.15 1.87,-0.48625 2.39625,-0.785 l 0.93625,-0.49125 c 0.31,-0.12125 0.63,-0.13875 1.0525,-0.12125 0.67875,0.0362 1.1925,0.28 1.42875,0.13875 0.11,-0.0813 0.05125,-0.36375 -0.24125,-0.5975 -0.1,-0.0837 -0.23125,-0.15375 -0.37375,-0.2025 0.36875,-0.0762 0.7125,-0.095 0.99625,-0.045 0.53875,0.0725 0.8775,0.31 0.99,0.22125 0.11625,-0.07 -0.09875,-0.58625 -0.81125,-0.86375 m 2.58875,-6.03125 c 0.0475,-0.09 -0.05125,-0.2625 -0.3,-0.35875 -0.1575,-0.065 -0.37125,-0.08 -0.57625,-0.0387 l -0.32,0.11625 c -0.5625,0.3375 -0.68625,0.53875 -1.115,0.97625 0.50375,-0.33375 0.75625,-0.385 1.2825,-0.465 0.49625,-0.075 0.895,-0.055 1.02875,-0.23 m -0.16375,1.2175 c 0.40625,0.0712 0.77875,0.145 1.04875,0.22875 0.26875,0.0788 0.46125,0.17875 0.54875,0.10875 0.08125,-0.06 0.0075,-0.33125 -0.31,-0.5625 -0.2675,-0.20125 -0.67875,-0.3225 -1.0875,-0.3225 l -0.18,0.009 c -0.94375,0.11625 -1.24875,0.27125 -2.13625,0.5675 0.91125,-0.16875 1.26875,-0.13875 2.11625,-0.0287 m -24.62125,0.495 c 0.0675,-0.115 0.13375,-0.22625 0.10125,-0.325 -0.02875,-0.0925 -0.1825,-0.15125 -0.38875,-0.0675 -0.20625,0.0788 -0.41375,0.3325 -0.445,0.59875 -0.0125,0.13125 -0.01375,0.23875 -0.0087,0.33625 -0.07625,-0.2075 -0.19375,-0.43125 -0.4375,-0.675 -0.2525,-0.24875 -0.61,-0.3575 -0.9,-0.3575 l -0.22125,0.025 c -0.3225,0.0638 -0.49,0.23875 -0.45,0.36 0.09125,0.23625 0.6975,0.25875 1.2025,0.4925 0.28125,0.12125 0.4675,0.28625 0.6275,0.47375 0.16,0.1925 0.295,0.41875 0.4175,0.7875 -0.01625,-0.135 -0.03125,-0.25375 -0.05125,-0.36375 0.01375,-0.4025 0.105,-0.59625 0.29875,-0.90625 0.11125,-0.15375 0.185,-0.26625 0.255,-0.37875 m 4.88125,2.92875 c 0.01875,0.28125 0.23625,0.41625 0.455,0.41625 0.24,0 0.485,-0.1625 0.47375,-0.46375 0.005,0.0538 0.0075,0.0937 -0.0012,-0.02 -0.0075,-0.11375 -0.005,-0.0762 -0.0012,-0.0213 -0.065,-0.57375 -0.96875,-0.5 -0.92625,0.0888 m 3.0325,4.29375 -0.0025,-0.0813 c -0.335,-0.0125 -0.67125,-0.035 -1.00625,-0.0675 -0.71875,-0.15625 -1.44125,-0.47 -1.44125,-1.135 -0.0012,-0.47 0.25125,-0.69875 0.5025,-0.7125 0.375,-0.02 0.375,0.2625 0.3125,0.4375 0.05,0.155 0.27625,-0.225 0.2375,-0.38625 -0.0875,-0.36 -0.46,-0.55125 -0.76875,-0.4675 -0.90375,0.245 -0.8375,1.36375 -0.19125,1.84 0.225,0.16375 0.48125,0.2775 0.75125,0.36125 -0.53375,-0.0662 -0.99875,-0.1775 -1.48625,-0.3625 -0.665,-0.25125 -1.6225,-0.945 -1.79625,-1.48 -0.0975,-0.30375 -0.0675,-0.565 0.22,-0.72375 0.11875,-0.0113 0.2025,0.0412 0.28125,0.09 0.08875,0.0562 0.17625,0.1125 0.3175,0.0825 0.155,-0.0237 0.19875,-0.1575 0.17875,-0.31125 -0.07375,-0.49 -1.435,-0.515 -1.3625,0.5375 0.0063,0.12125 0.03125,0.245 0.0725,0.365 -0.22375,-0.2075 -0.44375,-0.4325 -0.67125,-0.67125 -0.22625,-0.2425 -0.9125,-1.11125 -0.9125,-1.11125 -0.55,-0.6975 -0.91875,-1.83625 -0.1725,-2.56125 0.6175,-0.605 1.84,-0.2925 1.84875,0.6475 0.0038,0.205 -0.045,0.43625 -0.18375,0.5925 -0.12625,0.14 -0.40875,0.23 -0.4225,-0.05 -0.0725,-0.50875 -0.78625,-0.1275 -0.48,0.22875 0.51125,0.59375 1.31,-0.085 1.34375,-0.7725 0.03625,-0.71 -0.42875,-1.23375 -1.10625,-1.34125 -1.01,-0.16375 -1.65,0.43125 -1.78625,1.48625 -0.085,0.6775 0.22,1.39625 0.79125,2.1625 0,0 1.06,1.625 2.8175,2.59375 -0.20875,-0.08 -0.42,-0.15375 -0.62375,-0.23875 -0.26625,-0.1075 -0.6275,-0.355 -0.8525,-0.52875 -0.86625,-0.675 -1.44125,-1.33375 -2.10875,-2.2125 -0.64875,-0.85875 -1.69875,-2.07875 -2.70625,-2.525 -0.83625,-0.37375 -1.695,-0.5775 -2.575,-0.46875 -0.87625,0.1025 -1.845,0.42875 -2.3625,1.30375 -0.25375,0.42875 -0.395,0.7825 -0.37125,1.2925 0.05,0.58625 0.40875,1.00125 0.79125,1.28 0.29375,0.20875 0.63375,0.34875 0.99375,0.39625 0.3775,0.0438 0.69125,-0.0125 1.02125,-0.0862 0.1675,-0.0438 0.3175,-0.0925 0.48875,-0.17 0.18,-0.085 0.345,-0.19125 0.47875,-0.325 0.25875,-0.24875 0.3925,-0.665 0.19,-0.97375 -0.0925,-0.2225 -0.1825,-0.415 -0.39,-0.59625 -0.10375,-0.0875 -0.245,-0.16125 -0.4075,-0.2 -0.1575,-0.0387 -0.2575,-0.0375 -0.41125,0.004 -0.3375,0.1 -0.2625,0.355 -0.16625,0.57875 0.1425,0.355 0.37875,0.39625 0.46625,0.32875 0.12625,-0.0625 0.5375,-0.13875 0.70375,0.0475 0.08125,0.33625 -0.2,0.62125 -0.46625,0.7275 -0.25,0.11375 -0.6425,0.18875 -0.9725,0.18875 -0.66,0.0463 -1.30375,-0.37 -1.54875,-0.89875 -0.05875,-0.135 -0.07875,-0.25625 -0.07,-0.38625 0.01,-0.15125 0.045,-0.30625 0.095,-0.4525 0.09875,-0.29375 0.26875,-0.55375 0.49375,-0.75625 0.44375,-0.40625 1.0875,-0.5725 1.74625,-0.60625 l 0.01875,-10e-4 -0.01875,10e-4 0.15,-0.003 -0.0575,0 c 0.2575,-0.005 0.21625,-0.004 0.115,-10e-4 1.06125,-0.02 1.82875,0.37375 2.74375,1.0775 0.915,0.705 1.61125,1.86125 2.415,2.73125 0.335,0.3675 0.785,0.735 1.0425,0.94625 0.25125,0.21625 0.53,0.385 0.81375,0.53125 0.57,0.2925 1.1775,0.4725 1.78625,0.60375 1.21375,0.2475 2.45,0.3 3.67125,0.21875 l -0.0012,-0.0175 0.02125,0 -0.02125,0 m -8.41375,-2.5175 c -0.745,-0.4975 -1.7925,-0.685 -2.4975,-0.38625 -0.71,0.2775 -0.925,0.79375 -0.8075,0.86375 0.1075,0.0888 0.445,-0.14875 0.985,-0.22125 0.285,-0.05 0.62875,-0.0312 0.99875,0.045 -0.145,0.0488 -0.27375,0.11875 -0.37375,0.2025 -0.295,0.23375 -0.35375,0.51625 -0.24375,0.5975 0.23875,0.14125 0.7525,-0.1025 1.4325,-0.13875 0.42125,-0.0175 0.7425,0 1.0525,0.12125 l 0.93375,0.49125 c 0.5275,0.29875 1.395,0.635 2.3975,0.785 -0.52,-0.0775 -1.99625,-0.84375 -2.22125,-1.0325 -0.475,-0.3825 -0.86875,-0.82125 -1.65625,-1.3275 m -3.73125,-6.69875 -0.3175,-0.11625 c -0.20625,-0.0412 -0.42,-0.0263 -0.58,0.0387 -0.25,0.0963 -0.3475,0.26875 -0.29875,0.35875 0.1325,0.175 0.53375,0.155 1.03125,0.23 0.525,0.08 0.77375,0.13125 1.27625,0.465 -0.42625,-0.4375 -0.54875,-0.63875 -1.11125,-0.97625 m -2.08,1.7275 c 0.26875,-0.0838 0.64,-0.1575 1.04625,-0.22875 0.84875,-0.11 1.2075,-0.14 2.11375,0.0287 -0.8825,-0.29625 -1.18875,-0.45125 -2.13375,-0.5675 l -0.18,-0.009 c -0.4075,0 -0.82125,0.12125 -1.08875,0.3225 -0.315,0.23125 -0.39,0.5025 -0.30625,0.5625 0.08625,0.07 0.2775,-0.03 0.54875,-0.10875 m 12.88625,-0.62 c -0.0975,0.17 -0.11875,0.54875 0.155,0.74 0.6575,0.4625 1.18125,0.1925 1.54125,0.65 0.62625,0.78875 1.1175,1.4725 1.29,2.44625 l 0.0025,0.0987 0.01125,-0.0462 0.0087,0.0462 0,-0.0987 c 0.17125,-0.97375 0.66875,-1.6575 1.2875,-2.44625 0.3625,-0.4575 0.88625,-0.1875 1.54875,-0.65 0.27375,-0.19125 0.2525,-0.57 0.155,-0.74 -0.19875,-0.35375 -0.58,-0.53625 -0.9625,-0.53625 -0.1525,0 -0.30375,0.03 -0.45,0.0875 -1.19875,0.4875 -1.52625,2.165 -1.5875,3.49625 -0.06625,-1.33125 -0.39,-3.00875 -1.59125,-3.49625 -0.5075,-0.205 -1.13125,-0.0462 -1.40875,0.44875 m 5.32125,3.0975 c 0.06875,-0.27 -0.305,-0.34 -0.63375,-0.34 -0.18875,0 -0.36875,0.0238 -0.43625,0.0462 -0.95625,0.32 -1.20875,1.325 -1.25125,2.2575 -0.04625,-0.9325 -0.29875,-1.9375 -1.255,-2.2575 -0.18875,-0.0612 -1.1775,-0.13 -1.07125,0.29375 0.065,0.28625 1.1125,0.6225 1.35625,0.81375 -0.0775,-0.0588 -0.14375,-0.115 0,10e-4 l 0,-10e-4 0.0012,0.004 -0.0012,0 c 0.15125,0.1225 0.07875,0.0625 0.0025,10e-4 0.55125,0.4525 0.8525,1.11875 0.9625,1.81375 l 0,0.0362 0.005,-0.015 0.0013,0.015 0.0012,-0.0362 c 0.1075,-0.695 0.4125,-1.36125 0.96,-1.81375 -0.07375,0.0612 -0.15,0.12125 0.0037,-10e-4 l -0.0037,0 0.0062,-0.004 0,10e-4 c 0.14125,-0.11625 0.075,-0.06 0,-10e-4 0.24125,-0.19125 1.28875,-0.5275 1.3525,-0.81375 m -2.32125,3.31125 c -0.485,0 -0.87875,0.3925 -0.87875,0.875 0,0.485 0.39375,0.87875 0.87875,0.87875 0.485,0 0.87875,-0.39375 0.87875,-0.87875 0,-0.4825 -0.39375,-0.875 -0.87875,-0.875 m -31.5275,-20.27 c 0.45875,0.285 0.485,0.48375 0.655,0.9425 0.16375,0.435 0.56,-0.10375 0.5575,-0.45875 -0.005,-0.4425 -0.32125,-0.78875 -0.7175,-0.9175 l -0.06,-0.02 c -0.2225,-0.0588 -0.45125,-0.0862 -0.685,-0.0962 l 0.20375,-0.115 c 0.20125,-0.1775 0.29625,-0.58625 0.025,-0.7525 l -0.07,-0.02 c -0.16625,0 -0.28625,0.37375 -0.4,0.48875 l -0.0575,0.0462 0.055,-0.0387 c -0.17875,0.13875 -0.11625,0.0862 -0.055,0.0387 -0.2575,0.19 -0.525,0.30625 -0.84875,0.365 l 0.20375,0.0213 -0.24125,0.02 c 0.505,0.0638 1.0025,0.225 1.435,0.49625 m 1.38625,-1.02625 c -0.3575,0 -0.695,0.1525 -0.695,0.34 0,0.18625 0.3375,0.33875 0.695,0.33875 0.36125,0 0.45875,-0.1525 0.45875,-0.33875 0,-0.1875 -0.0975,-0.34 -0.45875,-0.34 m -4.17,5.145 c -0.0875,-0.11125 -0.44625,-0.40375 -0.695,-0.50875 -0.2475,-0.11625 -0.49625,-0.1575 -0.74375,-0.15875 -0.25,0.004 -0.4975,0.045 -0.745,0.1625 -0.12375,0.05 -0.24625,0.11875 -0.37,0.21 0.21,-0.24875 0.42625,-0.56 0.595,-0.73 0.32625,-0.3275 1.34875,-0.765 1.27625,-0.8775 -0.015,-0.0238 -0.0925,-0.0375 -0.21,-0.0375 -0.43375,0 -1.40875,0.17375 -1.74625,0.60375 -0.1725,0.22 -0.305,0.44 -0.36,0.7175 l -0.075,0.67125 -0.1675,0.0113 c -0.305,0.0213 -0.6125,0.0488 -0.91875,0.085 0.12,0.0113 0.23625,0.0225 0.3525,0.0312 -0.11625,0.0113 -0.23625,0.0237 -0.35375,0.0375 0.3075,0.0325 0.61125,0.0525 0.915,0.0738 0.15125,0.0113 0.23875,0.006 0.38375,0.085 0.225,0.24625 0.4475,0.3875 0.6725,0.48375 0.24625,0.11625 0.49375,0.1575 0.7425,0.16125 0.24875,0 0.495,-0.045 0.74125,-0.15875 0.24875,-0.10375 0.6075,-0.3975 0.69625,-0.50625 l 0.05375,-0.14375 -0.04375,-0.2125 m 3.285,4.7125 -0.02625,0.0113 0.02625,-0.0113 m 0.71125,-0.9175 c 0.0025,-0.26 -0.2125,-0.62 -0.38875,-0.62 -0.065,0 -0.12375,0.0475 -0.16875,0.16125 -0.17,0.45875 -0.19625,0.6575 -0.655,0.9425 -0.4325,0.27375 -0.93,0.4325 -1.435,0.49625 l 0.24,0.0188 -0.2025,0.0213 c 0.325,0.06 0.5925,0.17875 0.85,0.36875 -0.06,-0.0488 -0.1275,-0.105 0.05375,0.035 l -0.05375,-0.035 0.05625,0.0425 c 0.13,0.13 0.26625,0.59125 0.47,0.4675 0.2725,-0.16375 0.17625,-0.57375 -0.025,-0.74875 l -0.20375,-0.11625 c 0.22875,-0.01 0.455,-0.0375 0.675,-0.0937 l 0.07625,-0.0225 c 0.3925,-0.1325 0.70625,-0.47875 0.71125,-0.9175 m 0.17375,1.48375 c 0.36125,0 0.45875,-0.15125 0.45875,-0.34 0,-0.18625 -0.0975,-0.33875 -0.45875,-0.33875 -0.3575,0 -0.695,0.1525 -0.695,0.33875 0,0.18875 0.3375,0.34 0.695,0.34 m -2.07875,2.7975 -0.38125,0.28375 -0.2375,0.20125 c -0.0375,0.0788 0.0675,0.23375 0.32875,0.2375 l 0.0012,0 c 0.25625,0 0.51625,-0.1925 0.64125,-0.41625 0.2425,-0.46875 0.23875,-0.65875 0.38125,-1.13125 -0.24125,0.42125 -0.39875,0.555 -0.73375,0.825 m -0.41125,-0.93125 c 0.395,-0.015 0.6475,-0.1 0.89125,-0.19125 0.2375,-0.0987 0.47125,-0.205 0.7725,-0.41125 -0.33625,0.14 -0.58625,0.15 -0.82,0.1425 -0.23375,-0.0125 -0.4625,-0.0562 -0.7575,-0.16 -0.55625,-0.19 -1.13125,-0.39125 -1.295,-0.19375 -0.07,0.10125 0.0088,0.2975 0.22875,0.48375 0.2075,0.18 0.5625,0.33 0.93125,0.33 l 0.04875,0 z m 0.49875,-14.49875 0.37875,0.28375 c 0.3375,0.27125 0.495,0.40625 0.73625,0.82625 -0.14375,-0.4725 -0.1375,-0.66125 -0.38125,-1.13 -0.12625,-0.225 -0.38625,-0.41875 -0.64,-0.41875 l -0.0038,0 c -0.25875,0.004 -0.36625,0.15875 -0.32875,0.23875 l 0.23875,0.2 m -0.73125,1.3075 c 0.29625,-0.105 0.52375,-0.1475 0.75875,-0.16125 0.23125,-0.007 0.48125,10e-4 0.8175,0.1425 -0.29875,-0.20875 -0.535,-0.31375 -0.7725,-0.41125 -0.24125,-0.0913 -0.495,-0.17375 -0.89125,-0.19 l -0.0475,0 c -0.37125,0 -0.72375,0.1475 -0.93,0.32875 -0.22,0.18625 -0.3,0.3825 -0.22875,0.485 0.1625,0.195 0.7375,-0.004 1.29375,-0.19375 m 65.5825,1.4875 0.20125,-0.0238 c -0.32,-0.0588 -0.58625,-0.17375 -0.8475,-0.365 0.06125,0.0475 0.12625,0.1 -0.0525,-0.04 l 0.0525,0.04 -0.06,-0.045 c -0.11125,-0.115 -0.23,-0.49 -0.39625,-0.49 l -0.06875,0.02 c -0.27125,0.1675 -0.1775,0.57625 0.025,0.75125 l 0.20125,0.1175 c -0.23,0.01 -0.46,0.0388 -0.685,0.0963 l -0.05875,0.0187 c -0.39625,0.13 -0.70875,0.47625 -0.715,0.91875 -0.00375,0.355 0.39125,0.89375 0.5525,0.45625 0.1725,-0.4575 0.1975,-0.655 0.6575,-0.94 0.43125,-0.27125 0.93125,-0.43375 1.435,-0.4975 l -0.24125,-0.0175 m -2.5775,0.16625 c 0.3575,0 0.69,-0.15125 0.69,-0.3375 0,-0.19 -0.3325,-0.33875 -0.69,-0.33875 -0.3625,0 -0.46,0.14875 -0.46,0.33875 0,0.18625 0.0975,0.3375 0.46,0.3375 m 1.38375,8.745 c -0.46,-0.285 -0.485,-0.48375 -0.6575,-0.94125 -0.0425,-0.115 -0.1025,-0.1625 -0.165,-0.1625 -0.1775,0 -0.39,0.35875 -0.3875,0.62 0.00625,0.44 0.3175,0.785 0.71,0.9175 l 0.075,0.0213 c 0.22125,0.0575 0.4475,0.085 0.67625,0.0937 l -0.20375,0.11875 c -0.2025,0.17375 -0.29625,0.58375 -0.025,0.74875 0.20375,0.12375 0.34,-0.33875 0.465,-0.4675 l 0.05875,-0.0425 -0.05125,0.035 c 0.18375,-0.14125 0.1125,-0.0863 0.05125,-0.035 0.26,-0.1925 0.52625,-0.31 0.84875,-0.37125 l -0.2,-0.02 0.24,-0.0175 c -0.50375,-0.0638 -1.00375,-0.225 -1.435,-0.4975 m -0.47375,0.445 -0.02625,-0.0113 0.02625,0.0113 m -0.91,0.555 c 0.3575,0 0.69,-0.15125 0.69,-0.34 0,-0.18625 -0.3325,-0.33875 -0.69,-0.33875 -0.3625,0 -0.46,0.1525 -0.46,0.33875 0,0.18875 0.0975,0.34 0.46,0.34 m 2.4575,3.08375 -0.3775,-0.28625 c -0.34,-0.27 -0.49625,-0.405 -0.7375,-0.825 0.14375,0.4725 0.1375,0.6625 0.38,1.13125 0.12375,0.225 0.3875,0.41625 0.64375,0.41625 0.26,-0.004 0.3625,-0.15625 0.32875,-0.2375 l -0.2375,-0.19875 m -0.055,-1.83875 c -0.29625,0.105 -0.52375,0.1475 -0.75875,0.16125 -0.2325,0.006 -0.4825,-0.003 -0.82,-0.14 0.3025,0.20625 0.535,0.31 0.775,0.4075 0.24,0.095 0.495,0.1775 0.89,0.1925 l 0.04875,0 c 0.365,0 0.7225,-0.15 0.93,-0.32875 0.22,-0.1875 0.29625,-0.385 0.2275,-0.48375 -0.165,-0.19875 -0.73875,0.003 -1.2925,0.19125 m -0.8325,-13.74 0.3775,-0.285 0.24,-0.2 c 0.0375,-0.08 -0.07,-0.235 -0.3325,-0.2375 -0.25375,0 -0.51625,0.1925 -0.64,0.415 -0.24375,0.47 -0.24,0.65875 -0.3825,1.1325 0.2425,-0.42125 0.40125,-0.555 0.7375,-0.825 m 0.345,0.74125 c 0.24375,-0.0925 0.495,-0.175 0.89,-0.19125 l 0.04875,0 c 0.37,0 0.72375,0.14875 0.92875,0.32875 0.22125,0.18625 0.30125,0.38375 0.22875,0.485 -0.16625,0.19625 -0.73625,-0.004 -1.29,-0.19375 -0.29625,-0.105 -0.5225,-0.1475 -0.75875,-0.16 -0.235,-0.006 -0.4825,0.002 -0.8175,0.14125 0.29875,-0.2075 0.53125,-0.3125 0.77,-0.41"/>
    </g>
  </g>
</svg>